<svg xmlns="http://www.w3.org/2000/svg">

	  <g id="distinctive-church" >
	  	<path id="distinctive-church" d="M64.2,46.8c1.5,0,2.8-1.2,2.8-2.8c0-1.2-0.7-2.2-1.8-2.6L53.3,28.1v-4.9c0-0.4-0.3-0.7-0.7-0.7h-4.4c0,0-0.1-0.1-0.1-0.1
	c0,0-4.2-4.1-6.8-6.6V9.3h5.2c0.2,0,0.3-0.2,0.3-0.3V5.5c0-0.2-0.2-0.3-0.3-0.3h-5.2V0.3c0-0.2-0.2-0.3-0.3-0.3h-3.5
	c-0.2,0-0.3,0.2-0.3,0.3v4.8h-5.2c-0.2,0-0.3,0.2-0.3,0.3V9c0,0.2,0.2,0.3,0.3,0.3h5.2v6.4c-2.6,2.5-6.8,6.6-6.8,6.6s-0.1,0-0.1,0.1
	h-4.6c-0.4,0-0.7,0.3-0.7,0.7v4.9L12.7,41.5c-1,0.4-1.7,1.4-1.7,2.5c0,1.5,1.2,2.8,2.8,2.8c0.8,0,1.5-0.3,2-0.9v16h-2.6
	c-0.4,0-0.7,0.3-0.7,0.7v4.7c0,0.4,0.3,0.7,0.7,0.7h51.3c0.4,0,0.7-0.3,0.7-0.7v-4.7c0-0.4-0.3-0.7-0.7-0.7h-2.4V45.9
	C62.7,46.5,63.4,46.8,64.2,46.8z M20.2,57.2V51c0-2.4,1.5-4.3,3.4-4.3c1.9,0,3.4,1.9,3.4,4.3l0,6.2H20.2z M39,24.6
	c2.8,0,5.1,2.3,5.1,5.1c0,2.8-2.3,5.1-5.1,5.1c-2.8,0-5.1-2.3-5.1-5.1C33.9,26.9,36.2,24.6,39,24.6z M32.5,62V50.1
	c0-4.6,2.9-8.3,6.5-8.3c3.6,0,6.5,3.7,6.5,8.3l0,11.9H32.5z M50.9,57.2V51c0-2.4,1.5-4.3,3.4-4.3c1.9,0,3.4,1.9,3.4,4.3l0,6.2H50.9z
	"/>
		</g>
	<g id="distinctive-people" >
			<path  d="M90.9,28.7c0.7,2.6,1.8,4.6,2.8,4.6c0.1,0.5,0.2,0.9,0.3,1.3c0.6,2.6,1.4,4.8,2.8,6.2c2.4,2.4,0.3,4.8-1.6,6.3
				c2.2,2.4,5.6,4,9.3,4c3.8,0,7.1-1.6,9.3-4c-1.9-1.5-4-3.9-1.6-6.3c1.3-1.3,2.2-3.6,2.8-6.2c0.1-0.4,0.2-0.9,0.3-1.3
				c0.9,0,2.1-2,2.8-4.6c0.5-2.2,0.5-4.1,0.1-5c0.3-0.5,0.5-1,0.5-1.5c0-7.8-6.3-14.1-14.1-14.1c-7.8,0-14.1,6.3-14.1,14.1
				c0,0.6,0.2,1.1,0.4,1.6C90.3,24.6,90.4,26.5,90.9,28.7z M111.3,55.6c1.1-0.9,2.5-1.7,4.5-2.3c0-1.6,0-3.1,0-4.6l-0.2,0.2
				c-2.8,3-6.9,4.8-11.2,4.8c-4.3,0-8.4-1.7-11.2-4.8l-0.3-0.3c0,0-0.1,0-0.1,0s-7.5,2.4-10.9,5.3C78.5,56.8,78,68,78,68h26.4h2.7
				l0-0.1C107.2,66.3,107.8,58.6,111.3,55.6z M152.7,57.5c-1.3-1.1-3.4-1.8-5.4-2.4c0,0,0,0,0,0c-0.1-29.9-1.5-35.9-14.5-35.9
				c-13,0-14.3,6-14.5,35.9c0.4-0.1,0.7-0.2,1-0.3c-0.3,0.1-0.7,0.2-1,0.3c-2,0.5-4.1,1.3-5.4,2.4c-2.9,2.5-3.3,10.5-3.3,10.5h23.1
				H156C156,68,155.6,60,152.7,57.5z M145.3,54.7c-0.3,4.2-6.3,6-12.4,6c-6.1,0-12.1-1.9-12.4-6c-0.3,0.1-0.6,0.1-1,0.2
				c1.6-0.4,3-0.6,3.6-0.6c0,0.1,0,0.1,0,0.2c0,2,4.4,3.7,9.8,3.7c5.4,0,9.8-1.7,9.8-3.7c0-0.1,0-0.1,0-0.2c0.6,0.1,2,0.3,3.5,0.6
				C145.9,54.8,145.6,54.8,145.3,54.7z"/>

	</g>
	<g id="distinctive-bible" >
		<path d="M217.3,7.6V63h-39.7c-2.5,0-4.9-1.3-4.9-5h39.7V2.5h-37.2c-7.4,0-7.4,0-7.4,7.5V58c0,7.5,6.2,10,12.4,10h42.2V12.6
	L217.3,7.6z M177.6,20.7h9.9v-10h4.9v10h9.9v5h-9.9v20h-4.9v-20h-9.9V20.7z"/>
	</g>
</svg>
