<?xml version="1.0" encoding="utf-8"?>
<!-- Generator: Adobe Illustrator 24.0.3, SVG Export Plug-In . SVG Version: 6.00 Build 0)  -->
<svg version="1.1" id="Layer_1" xmlns="http://www.w3.org/2000/svg" xmlns:xlink="http://www.w3.org/1999/xlink" x="0px" y="0px"
	 viewBox="0 0 252 252" style="enable-background:new 0 0 252 252;" xml:space="preserve">
<style type="text/css">
	.st0{fill:#0067B0;}
</style>
<path class="st0" d="M97.9,122.1c-18.1,8.4-37.5-7-37.7-7.1c-0.4-0.3-0.9-0.5-1.3-0.5c-15.8,0-20.2,13-20.4,20v43.9
	c0,1.2,1,2.1,2.1,2.1c1.2,0,2.1-1,2.1-2.1v-43.9c0-0.6,0.5-15.3,15.4-15.7c1.6,1.2,6.3,4.5,12.6,7c10.4,4.1,20.5,4.2,29,0.2
	c1.1-0.5,1.5-1.8,1-2.9C100.3,122.1,99,121.6,97.9,122.1z M187.3,143.2c-0.8-0.1-1.6,0.3-2.1,1c-0.1,0.1-5.7,9-23.8,9
	c-18.2,0-25.7-8.7-25.7-8.8c-0.4-0.5-1-0.8-1.7-0.8c-6,0-10.9,1.8-14.4,5.5c-6.1,6.2-6,15.5-6,15.8v40.4c0,1.2,1,2.1,2.1,2.1
	c1.2,0,2.1-1,2.1-2.1v-40.5c0-0.1-0.1-7.9,4.8-12.8c2.5-2.6,6.1-4,10.4-4.1c2.5,2.4,11.1,9.5,28.3,9.5c16.6,0,24.2-7,26.6-9.8
	c3.9,0.7,16,4.1,16,16.8v10.9c0,1.2,1,2.1,2.1,2.1s2.1-1,2.1-2.1v-10.9C208.4,149.5,194.6,144,187.3,143.2z M85.4,114.7
	c19.4,0,35.1-15.7,35.1-35.1s-15.7-35.1-35.1-35.1S50.3,60.3,50.3,79.6S66,114.7,85.4,114.7z M85.4,48.8c17,0,30.8,13.8,30.8,30.8
	s-13.8,30.8-30.8,30.8S54.5,96.6,54.5,79.6S68.4,48.8,85.4,48.8z"/>
<path class="st0" d="M209.9,120c-4.2-5.6-10.9-7.6-14.2-8.3c0.1-1.1,0.2-2.2,0.2-3.2c0-19.4-15.7-35.1-35.1-35.1
	c-19.3,0-35,15.7-35.1,35v0c0,0,0,0.1,0,0.1c0,1.1,0.1,2.2,0.2,3.2c-3.2,0.6-10,2.6-14.3,8.3c-3.4,4.6-4.5,10.4-3.1,17.4
	c0.2,1,1.1,1.7,2.1,1.7c0.4,0,8.8-0.1,14.6-6.5c2.1-2.3,3.6-5.2,4.4-8.5c5.8,11.5,17.7,19.4,31.4,19.4c13.6,0,25.5-7.8,31.3-19.2
	c0.8,3.3,2.3,6,4.4,8.3c5.8,6.4,14.2,6.5,14.6,6.5c1,0,1.9-0.7,2.1-1.7C214.3,130.5,213.3,124.6,209.9,120L209.9,120z M121.8,129.8
	c-3.1,3.4-7.3,4.5-9.6,4.9c-0.6-4.9,0.3-9,2.6-12.1c3.1-4.1,8.1-5.9,11-6.5C126,122,124.7,126.6,121.8,129.8z M191.4,105.6
	c-23.2-7.8-27.5-22.2-28.3-27.7C177.9,78.9,189.9,90.7,191.4,105.6z M158,77.8c-4.8,20.1-21.5,26.3-28,28
	C131.3,91,143.2,79.1,158,77.8L158,77.8z M160.7,139.3c-16.4,0-29.9-12.9-30.8-29.1c5.8-1.4,23.2-7,30.5-25.7
	c3,7.9,10.8,19.1,31.1,25.5C190.6,126.4,177.1,139.3,160.7,139.3z M209.1,134.8c-2.3-0.4-6.5-1.5-9.6-4.9c-2.9-3.2-4.3-7.8-4-13.8
	c2.8,0.7,7.8,2.3,11,6.5C208.8,125.8,209.7,129.9,209.1,134.8L209.1,134.8z"/>
</svg>
