<svg xmlns="http://www.w3.org/2000/svg" viewBox="0 0 603.56 174.72"><defs><style>.a{fill:#fff;}</style></defs><title>a-gift-of-lockup--white</title><path class="a" d="M408,383.7c0.62-1.13,1.09-2,1.6-2.93,1.38-2.44,3.55-3.23,5.73-2.14a4.26,4.26,0,0,1,1.61,5.92c-3,5.67-6,11.39-9,17.06a4,4,0,0,1-5,2.15,4.16,4.16,0,0,1-2.77-4.72c0-.29.1-0.57,0.17-1a27.08,27.08,0,0,0-4.64,0,20.15,20.15,0,0,0-8.48,3.64,14.83,14.83,0,0,0-6.27,11.46,1.68,1.68,0,0,0,0,.22,4.22,4.22,0,0,1-4.56,4.54c-2.51-.23-4-2.38-3.75-5.32a23.76,23.76,0,0,1,5.89-14.2,2.08,2.08,0,0,0-.14-0.31,0.29,0.29,0,0,0-.15-0.12,3.8,3.8,0,0,0-.66-0.08l-492.42-.08a1.35,1.35,0,0,1-.35-0.22v-8H364.68l0.12-.41c-4.82-1.94-9.34-4.31-12.79-8.78,0.76-.07,1.23-0.14,1.7-0.14,3.1-.06,6.2-0.13,9.31-0.14a6,6,0,0,1,2.36.32,51.82,51.82,0,0,0,14.34,3.61,99.71,99.71,0,0,0,16.21.59,1.75,1.75,0,0,0-.09-0.69c-2.65-3.55-5.34-7.07-8-10.63a39.9,39.9,0,0,0-11.16-10.64c-3.42-2.08-7.06-3.39-11.15-2.9-1.46.18-2.9,0.53-4.37,0.72a15.12,15.12,0,0,1-9.21-1.51,10.89,10.89,0,0,1,1-1.46c4.7-5,10.56-6.88,17.28-6s12.27,4.23,17.07,8.78a87.36,87.36,0,0,1,7.49,8.44c2.24,2.75,4.2,5.71,6.39,8.51A29.41,29.41,0,0,0,408,383.7Z" transform="translate(115.21 -245.93)"/><path class="a" d="M398.13,316.06c3.39,0,6.47,0,9.56,0,1.12,0,1.49.85,2,1.54q7,9.7,14,19.42l12.69,17.63c0.43,0.6.88,1.18,1.31,1.74a1.4,1.4,0,0,0,.27-0.06,0.36,0.36,0,0,0,.15-0.13,0.47,0.47,0,0,0,.07-0.21c0-.22,0-0.44,0-0.66q0-19.18,0-38.35a1.77,1.77,0,0,1,.08-0.43,2.28,2.28,0,0,1,.2-0.35h10v53.29c0.88-.9,1.38-1.39,1.85-1.9a44.42,44.42,0,0,1,9-7.88,19,19,0,0,1,15.52-2.39c10.76,2.81,16.26,13.67,12.3,24.24a22.28,22.28,0,0,1-10.95,12c-4.71,2.51-9.84,3.52-15.09,4a106.77,106.77,0,0,1-26.92-1.25,12.92,12.92,0,0,0-1.32-.13,2.15,2.15,0,0,0-.56.18c0.34,0.43.62,0.84,0.95,1.21,4.56,5.19,6.77,11.36,7.48,18.13,0.28,2.67-1.29,4.69-3.65,4.93s-4.31-1.32-4.61-4a27.36,27.36,0,0,0-2.21-8.53,18.51,18.51,0,0,0-8.41-9.07c-0.57,1-1.1,2-1.72,3a3.9,3.9,0,0,1-4,1.88,3.64,3.64,0,0,1-3.37-2.77,4.63,4.63,0,0,1,.15-3q4.54-9,9.33-17.87a3.93,3.93,0,0,1,5.34-1.73,4.17,4.17,0,0,1,2,5.45c-0.23.6-.53,1.18-0.82,1.8,3.48,0.48,11.45-5.83,15.3-11.39a24.91,24.91,0,0,0-3.31-.12,3.48,3.48,0,0,1-3.45-1.79q-13.48-19-27.05-37.87a9.65,9.65,0,0,0-1.65-1.86c-0.22,3.45-.21,6.87-0.21,10.29s0,6.8,0,10.2v10.42c0,3.4,0,6.79,0,10.16-2.67.88-3.27,0.74-4.78-1.28s-3.08-4.34-4.72-6.43a4.26,4.26,0,0,1-.69-2.93q0-20.95,0-41.9C398.13,319.65,398.13,318,398.13,316.06ZM442,388.77a1.27,1.27,0,0,0,.39.25,85,85,0,0,0,20.31,0,27.27,27.27,0,0,0,9.89-3,13.82,13.82,0,0,0,6.93-8.25c1.4-4.78-.43-9.5-4.57-11.54a10.63,10.63,0,0,0-10.4,0,25.33,25.33,0,0,0-4.62,3.39,71.46,71.46,0,0,0-5.2,5.44c-4,4.54-7.79,9.27-12.47,13.17A1.57,1.57,0,0,0,442,388.77Z" transform="translate(115.21 -245.93)"/><path class="a" d="M28.61,316.16H42.93l15.74,39,15.84-39H88.76v58h-10c0-3.54,0-7,0-10.56s0-7.09,0-10.64V331.64a3.05,3.05,0,0,0-1.4,2.11Q69.62,352.61,62,371.5c-1.16,2.85-1.16,2.86-4.32,2.75-0.36,0-.72-0.08-1.23-0.14l-17.21-42.6-0.52.07c0,14.11,0,28.22,0,42.64-3.44.05-6.71,0.06-10.09,0v-58Z" transform="translate(115.21 -245.93)"/><path class="a" d="M18.82,345.25c-0.15,6.94-1.89,13.36-6.18,18.86-6.76,8.68-15.93,11.79-26.63,11a27.92,27.92,0,0,1-10.23-2.67c-9.33-4.49-14.49-12.07-16.1-22.15a31.53,31.53,0,0,1,2.11-17.81c4.29-9.92,12-15.45,22.57-17.08a30.4,30.4,0,0,1,14.24,1.1c11,3.6,17.34,11.31,19.55,22.54C18.54,341.12,18.6,343.2,18.82,345.25Zm-29.83-21c-8.19,0-14.66,4.27-17.55,11.8a24.28,24.28,0,0,0,.14,18.59c3.13,7.5,8.92,11.36,17.06,11.52a18,18,0,0,0,17.6-11.09,25.34,25.34,0,0,0,1.7-13.89C6.58,331-1,324.26-11,324.25Z" transform="translate(115.21 -245.93)"/><path class="a" d="M200,374.24c-3.7,0-7,0-10.31,0a1.39,1.39,0,0,1-1.32-1.24q-1.49-3.94-3-7.86c-0.26-.68-0.57-1.34-0.85-2H157l-4.28,11H142c0.14-1.67,21.06-55.38,22.58-58h12.53Zm-40-20.27h21.64L171,325.41l-0.5,0Z" transform="translate(115.21 -245.93)"/><path class="a" d="M387.15,353.59l-9.2-5.18c-0.19-2.64-.2-5.39-0.63-8.06-1.28-8-6.72-13.9-14.12-15.6-11.47-2.64-21.71,4.33-23.52,16A25.75,25.75,0,0,0,341,354.42c4.58,11.57,16.06,13.34,23.46,10.91a9.46,9.46,0,0,1,6.87.22,21.61,21.61,0,0,1,5.76,3.55c-0.57.48-1,.89-1.43,1.2a28.92,28.92,0,0,1-13.85,4.8,31.93,31.93,0,0,1-16.22-2.5A26.12,26.12,0,0,1,332,359.29a32.27,32.27,0,0,1-.57-26.87c5.39-13,18-18.24,30.15-17.16a29.1,29.1,0,0,1,9.22,2.23c10.16,4.46,15.63,12.44,17.2,23.25a33.59,33.59,0,0,1-.46,11.68C387.44,352.77,387.3,353.1,387.15,353.59Z" transform="translate(115.21 -245.93)"/><path class="a" d="M298.17,323.37l-5.68,7.39c-0.54-.38-1-0.68-1.44-1a23.32,23.32,0,0,0-17.12-5.29,14.61,14.61,0,0,0-4.83,1.43,5.78,5.78,0,0,0-3.18,4c-0.57,2.29-.07,4.14,1.91,5.44a19.69,19.69,0,0,0,4.77,2.26c3.23,1,6.57,1.72,9.8,2.74a61.59,61.59,0,0,1,8.28,3.09c5.5,2.65,8.64,7,8.78,13.27,0.14,6.49-2.28,11.65-7.88,15.13a24.47,24.47,0,0,1-10.92,3.3,36.3,36.3,0,0,1-18.61-2.88,26.44,26.44,0,0,1-8.62-6.22L259,358.3c0.81,0.71,1.45,1.3,2.12,1.85,6.17,5.11,13.17,7.09,21.08,5.5a9.23,9.23,0,0,0,5-2.7c2.94-3.1,2.51-7.45-1.13-9.64A24.48,24.48,0,0,0,280.6,351c-3.74-1.14-7.56-2-11.3-3.15a39.44,39.44,0,0,1-5.94-2.4c-10.6-5.26-10-18.54-3.09-24.64a21,21,0,0,1,10.87-5.12A32.89,32.89,0,0,1,292.41,319,23.07,23.07,0,0,1,298.17,323.37Z" transform="translate(115.21 -245.93)"/><path class="a" d="M201.71,366l5.56-7.71c0.61,0.52,1.11.92,1.59,1.35A24.7,24.7,0,0,0,228.47,366a12,12,0,0,0,6.15-2.29c3.25-2.44,4.41-8.12-.78-10.76a39.14,39.14,0,0,0-6.4-2.42c-3.25-1-6.58-1.69-9.81-2.71a40.08,40.08,0,0,1-6.33-2.62c-10-5.17-9.5-17.51-3.58-23.61a20.36,20.36,0,0,1,11.64-5.93,32.36,32.36,0,0,1,21.45,3.45,70.28,70.28,0,0,1,5.79,4l-5.89,7.66c-0.49-.37-0.85-0.61-1.17-0.89a23.7,23.7,0,0,0-17.05-5.56,10.61,10.61,0,0,0-5.63,1.78,6.17,6.17,0,0,0-2.77,4.34,4.58,4.58,0,0,0,2.14,5,22.72,22.72,0,0,0,4.8,2.2c3.24,1,6.57,1.71,9.81,2.73a63.14,63.14,0,0,1,8.27,3.11c12.47,6,10.43,22.64,1,28.21A26.11,26.11,0,0,1,229,375.13a35.86,35.86,0,0,1-19.61-3.33A25.31,25.31,0,0,1,201.71,366Z" transform="translate(115.21 -245.93)"/><path class="a" d="M111.45,374.12H101.39V316.2c0.7-.05,1.34-0.15,2-0.15,7.68,0,15.36-.05,23,0a27.68,27.68,0,0,1,5.92.7c9.54,2.21,14.2,10.67,13.37,19.25-0.91,9.47-7.29,15.7-16.78,16.33-4.85.33-9.74,0.14-14.61,0.19h-2.85v21.57Zm0.11-30.68c5.29,0,10.38.2,15.46-.06a8.64,8.64,0,0,0,8.23-8.12c0.36-5-2.33-8.76-7-9.85a13.17,13.17,0,0,0-2.86-.29c-4.06,0-8.12,0-12.18,0-0.5,0-1,.1-1.64.16v18.16Z" transform="translate(115.21 -245.93)"/><path class="a" d="M-54.83,357.85l8.39,4.29a15.82,15.82,0,0,1-.86,1.58c-6.28,8.84-15,12.27-25.59,11.47a28.39,28.39,0,0,1-9.23-2.2c-10.37-4.51-16.21-12.45-17.72-23.62a30.55,30.55,0,0,1,2.59-17.51c4.47-9.41,12.08-14.66,22.25-16.34a29.86,29.86,0,0,1,15.07,1.29,25.88,25.88,0,0,1,13.06,10.51,3.62,3.62,0,0,1,.28.59,2.52,2.52,0,0,1,.05.43l-8.54,4.36a9.11,9.11,0,0,0-.51-1C-62.26,322-76.36,322-84,330.15c-7.46,8-7.5,22-.1,30,7.75,8.39,22.13,8.14,28.59-1.53A9.1,9.1,0,0,1-54.83,357.85Z" transform="translate(115.21 -245.93)"/><path class="a" d="M309.07,316.18H319v57.91h-9.92V316.18Z" transform="translate(115.21 -245.93)"/><path class="a" d="M123.7,265.64c0.12,0.76.26,1.32,0.29,1.89,0.19,3.61.32,7.23,0.53,10.84a3,3,0,0,1-.88,2.38c-5.23,5.76-14.3,8-22,5.3a19.37,19.37,0,0,1-13-17.38,23.22,23.22,0,0,1,.69-7.9,19.44,19.44,0,0,1,17.31-14,18.87,18.87,0,0,1,16.48,6.54l-3.53,2.5c-0.49-.4-0.94-0.74-1.37-1.11a14.77,14.77,0,0,0-24.11,7.61,17.41,17.41,0,0,0,1.68,13.08,14.86,14.86,0,0,0,22.72,3.74,2.88,2.88,0,0,0,1-1.8c0-2.27-.21-4.54-0.36-7.11l-13.23.54-0.32-4.31Z" transform="translate(115.21 -245.93)"/><path class="a" d="M294.12,270A22.27,22.27,0,0,1,291,281.63c-4.07,6.81-11.42,10-19.77,8.67A18.27,18.27,0,0,1,255.9,276a23,23,0,0,1,1.84-15.52c3.67-7.37,11-11.09,19.71-10.08a18.51,18.51,0,0,1,16.08,14.38,17.83,17.83,0,0,1,.4,2.17C294,267.94,294.06,269,294.12,270Zm-4.89-.17c-0.2-1.46-.31-2.93-0.63-4.36a13.49,13.49,0,0,0-11.74-10.77c-6.58-.76-11.81,2-14.56,7.68a19.16,19.16,0,0,0-1.4,13.15A14,14,0,0,0,287.35,278,22.34,22.34,0,0,0,289.23,269.83Z" transform="translate(115.21 -245.93)"/><path class="a" d="M59.88,289.5l-5.33.6-4.5-8.17c-5.47.63-10.8,1.42-16.16,1.8-2.73.19-4.07,1.15-4.41,3.9a39.1,39.1,0,0,1-1.5,5.55l-5.31.64L33.74,253.2l3.11-.34,2.91-.33ZM37.57,257.74l-0.44,0-5.76,21.95,16.75-2Z" transform="translate(115.21 -245.93)"/><path class="a" d="M183.33,246.17v4.11H162.87v12.64H183v4.28l-20.17.11V285H158V246.42C159.51,246,179.83,245.73,183.33,246.17Z" transform="translate(115.21 -245.93)"/><path class="a" d="M336,258.58l-0.56,4.17c-6.9-.65-13.57-2.14-20.52-2.81l-1.84,12.29,20,3.05-0.63,4.25-20-3-2.69,17.55-4.79-.71,5.78-38.62Z" transform="translate(115.21 -245.93)"/><path class="a" d="M223.7,247.15v4.13H211.31l-1.14,34.34h-4.83l1.07-34.71-12.13-.36v-4.31C204.11,246.4,213.81,246.84,223.7,247.15Z" transform="translate(115.21 -245.93)"/><path class="a" d="M143.17,285.26h-4.86l-0.81-38.73h4.86Z" transform="translate(115.21 -245.93)"/></svg>