<?xml version="1.0" encoding="utf-8"?>
<!-- Generator: Adobe Illustrator 24.0.3, SVG Export Plug-In . SVG Version: 6.00 Build 0)  -->
<svg version="1.1" id="Layer_1" xmlns="http://www.w3.org/2000/svg" xmlns:xlink="http://www.w3.org/1999/xlink" x="0px" y="0px"
	 viewBox="0 0 252 252" style="enable-background:new 0 0 252 252;" xml:space="preserve">
<style type="text/css">
	.st0{fill:#0067B0;}
</style>
<path class="st0" d="M154.4,90.4l-68.7,21.8c-1.1,0.4-1.7,1.6-1.4,2.7c0.4,1.1,1.5,1.7,2.7,1.4l68.7-21.8c1.1-0.4,1.7-1.6,1.4-2.7
	C156.7,90.6,155.5,90,154.4,90.4z"/>
<path class="st0" d="M214.3,52.1c-1.6-1.8-3.9-2.7-6.6-2.7c-2.6,0-4.8,0.9-6.4,2.7c-2.3,2.5-2.9,6.1-3,8.2l-145,45.5
	c-1.1-2.6-3.7-5.6-8.7-5.6c-6.6,0-9.3,6.2-9.8,9.5c0,0.1,0,0.2,0,0.3v31.7c0,0.1,0,0.1,0,0.2c0.3,3.4,2.6,10,9,10
	c4.9,0,7.3-3.4,8.4-6.3l146.4,45.8v3c0,2.3,1.6,8.3,9,8.3c7,0,9.2-5.6,9.4-8.5l0-0.1V61.2C217.2,60.2,217.3,55.3,214.3,52.1
	L214.3,52.1z M212.8,60.9c0,0.1,0,0.1,0,0.2v132.8c-0.1,0.9-0.7,4.4-5.1,4.4c-4.3,0-4.7-3.1-4.7-4v-4.6c0-0.9-0.6-1.8-1.5-2
	l-150.1-47c-1.1-0.4-2.3,0.3-2.7,1.4c0,0.1-0.1,0.3-0.1,0.4c0,0.2-0.6,5-4.7,5c-3.9,0-4.6-5.2-4.7-6v-31.4c0.2-0.9,1.2-5.7,5.5-5.7
	c4.3,0,5,3.5,5.1,4.2c0.2,1.2,1.2,2,2.4,1.8c0.1,0,0.2,0,0.4-0.1l148.6-46.6c1-0.3,1.6-1.2,1.5-2.2c0,0-0.3-4.5,1.8-6.7
	c0.8-0.9,1.9-1.3,3.3-1.3c1.5,0,2.6,0.4,3.5,1.3C212.8,56.7,212.9,59.8,212.8,60.9z"/>
<path class="st0" d="M135,181.8c-1.1-0.4-2.3,0.2-2.7,1.3c0,0,0,0,0,0c-2,5.5-4.9,8-7,9c-1.1,0.6-2.4,0.7-3.6,0.3
	c-6.2-1.9-21.8-6.8-33.4-11.1c-5.5-2-3.2-13.7-3.1-13.8c0.2-1.2-0.6-2.3-1.7-2.5c-1.1-0.2-2.2,0.5-2.5,1.6
	c-0.1,0.6-3.2,15.4,5.8,18.8c11.7,4.3,27.4,9.2,33.6,11.1c0.9,0.3,1.8,0.4,2.8,0.4c1.4,0,2.8-0.3,4.1-1c2.8-1.4,6.7-4.6,9.1-11.4
	C136.7,183.4,136.1,182.1,135,181.8C135,181.8,135,181.8,135,181.8L135,181.8z"/>
</svg>
