<?xml version="1.0" encoding="utf-8"?>
<!-- Generator: Adobe Illustrator 24.0.3, SVG Export Plug-In . SVG Version: 6.00 Build 0)  -->
<svg version="1.1" id="Layer_1" xmlns="http://www.w3.org/2000/svg" xmlns:xlink="http://www.w3.org/1999/xlink" x="0px" y="0px"
	 viewBox="0 0 252 252" style="enable-background:new 0 0 252 252;" xml:space="preserve">
<style type="text/css">
	.st0{fill:#0067B0;}
</style>
<path class="st0" d="M213.1,49.5c-0.6-0.4-1.4-0.4-2.1-0.1L138.5,85c0,0-0.1,0-0.1,0h-24.9L41,49.4c-1.1-0.5-2.3-0.1-2.9,1
	c-0.1,0.3-0.2,0.6-0.2,0.9v120.4c0,0.8,0.5,1.6,1.2,1.9l71.9,35.2c0.4,0.4,1,0.7,1.6,0.7h25.7c0.1,0,0.2,0,0.4,0c0.1,0,0.2,0,0.3,0
	c0.3,0,0.6-0.1,0.9-0.2l72.9-35.7c0.7-0.4,1.2-1.1,1.2-1.9V51.4C214.1,50.6,213.7,49.9,213.1,49.5L213.1,49.5z M42.2,54.8l68.3,33.5
	v115.6l-68.3-33.5V54.8z M136.2,205.3h-21.1V89.2h21.1V205.3z M209.8,170.4L141.1,204V88.4l68.6-33.6V170.4z"/>
<path class="st0" d="M55.9,46.3c15.5,10.3,26.2,12,36.6,13.7c3.6,0.6,7,1.1,10.7,2c14.2,3.5,20,12,20.8,13.3c0.2,0.4,0.5,0.8,0.9,1
	c0.3,0.2,0.6,0.2,0.9,0.3c0,0,0.1,0,0.1,0c0.8,0,1.6-0.5,2-1.3c0.8-1.3,6.5-9.8,20.8-13.3c3.6-0.9,7.1-1.4,10.7-2
	c10.4-1.7,21.1-3.4,36.6-13.7c1-0.7,1.2-2,0.5-3c-0.7-0.9-1.9-1.2-2.9-0.6c-14.7,9.8-24.5,11.4-34.9,13c-3.5,0.6-7.2,1.2-11,2.1
	c-12.2,3-18.8,9.2-21.7,12.9c-2.9-3.6-9.5-9.9-21.7-12.9c-3.8-0.9-7.5-1.5-11-2.1c-10.4-1.7-20.2-3.2-34.9-13c-1-0.6-2.3-0.3-3,0.7
	C54.7,44.4,55,45.7,55.9,46.3L55.9,46.3z M159.6,123.8c0.3,0,0.6-0.1,0.9-0.2l15.4-7.1v40.8c0,1.2,1,2.1,2.1,2.1s2.1-1,2.1-2.1
	v-42.8l15-6.9c1.1-0.5,1.6-1.7,1.1-2.8c-0.5-1.1-1.7-1.6-2.8-1.1c0,0,0,0,0,0l-13.2,6.1V91.5c0-1.2-1-2.1-2.1-2.1s-2.1,1-2.1,2.1
	v20.3l-17.2,7.9c-1.1,0.5-1.5,1.8-1.1,2.8C158,123.3,158.8,123.8,159.6,123.8L159.6,123.8z"/>
</svg>
