<?xml version="1.0" encoding="utf-8"?>
<!-- Generator: Adobe Illustrator 24.0.1, SVG Export Plug-In . SVG Version: 6.00 Build 0)  -->
<svg version="1.1" id="Layer_1" xmlns="http://www.w3.org/2000/svg" xmlns:xlink="http://www.w3.org/1999/xlink" x="0px" y="0px"
	 viewBox="0 0 250.42 250.42" style="enable-background:new 0 0 250.42 250.42;" xml:space="preserve">
<style type="text/css">
	.st0{display:none;}
	.st1{display:inline;fill:#005CB9;}
	.st2{display:none;fill:none;stroke:#005CB9;stroke-width:5;stroke-miterlimit:10;}
	.st3{fill:#005CB9;}
	.st4{fill:none;stroke:#005CB9;stroke-width:5;stroke-miterlimit:10;}
</style>
<g class="st0">
	<path class="st1" d="M214.23,50.73c-0.63-0.39-1.41-0.43-2.08-0.11l-72.49,35.52c-0.04,0-0.08-0.01-0.12-0.01h-24.87L42.21,50.62
		c-0.66-0.33-1.45-0.29-2.08,0.11c-0.63,0.39-1.01,1.08-1.01,1.82v120.38c0,0.82,0.47,1.56,1.2,1.93l71.93,35.24
		c0.39,0.43,0.95,0.7,1.57,0.7h25.72c0.13,0,0.25-0.02,0.37-0.04c0.09,0.01,0.18,0.04,0.27,0.04c0.32,0,0.65-0.07,0.94-0.22
		l72.91-35.73c0.73-0.36,1.2-1.11,1.2-1.93V52.55C215.24,51.81,214.86,51.12,214.23,50.73z M43.41,55.98l68.27,33.45v115.61
		l-68.27-33.45V55.98z M137.4,206.51h-21.08V90.41h21.08V206.51z M210.95,171.59l-68.62,33.62V89.61l68.62-33.62V171.59z"/>
	<path class="st1" d="M57.11,47.49c15.51,10.33,26.23,12.05,36.6,13.71c3.61,0.58,7.01,1.12,10.66,2.02
		c14.24,3.49,19.98,12.02,20.77,13.29c0.18,0.41,0.49,0.77,0.92,1c0.3,0.17,0.62,0.24,0.95,0.25c0.04,0,0.08,0.02,0.12,0.02
		c0.35,0,0.7-0.08,1.02-0.26c0.43-0.24,0.74-0.6,0.93-1.02c0.8-1.29,6.55-9.79,20.76-13.28c3.65-0.89,7.05-1.44,10.66-2.02
		c10.37-1.66,21.09-3.38,36.6-13.71c0.99-0.66,1.25-1.99,0.6-2.97s-1.99-1.25-2.97-0.6c-14.73,9.81-24.53,11.38-34.9,13.05
		c-3.53,0.57-7.19,1.15-11,2.09c-12.16,2.98-18.77,9.25-21.7,12.85c-2.94-3.61-9.54-9.87-21.7-12.85c-3.81-0.94-7.47-1.52-11-2.09
		c-10.37-1.66-20.16-3.23-34.9-13.05c-0.98-0.66-2.32-0.39-2.97,0.6S56.12,46.84,57.11,47.49z"/>
	<path class="st1" d="M160.8,124.94c0.3,0,0.6-0.06,0.89-0.2l15.4-7.06v40.84c0,1.18,0.96,2.14,2.14,2.14s2.14-0.96,2.14-2.14
		v-42.81l15.01-6.88c1.08-0.49,1.55-1.77,1.06-2.84c-0.49-1.08-1.77-1.55-2.84-1.06l-13.22,6.06V92.67c0-1.18-0.96-2.14-2.14-2.14
		s-2.14,0.96-2.14,2.14v20.31l-17.18,7.88c-1.08,0.49-1.55,1.77-1.06,2.84C159.21,124.48,159.99,124.94,160.8,124.94z"/>
</g>
<circle class="st2" cx="124.43" cy="124.43" r="90.75"/>
<polyline class="st2" points="62.81,190.74 96.18,187.18 114.72,214.19 "/>
<polyline class="st2" points="169.98,201.91 176.18,170.18 206.14,161.72 "/>
<polyline class="st2" points="212.39,103.12 186.18,90.18 185.49,57.02 "/>
<polyline class="st2" points="133.14,34.47 111.18,55.18 81.91,43.63 "/>
<polyline class="st2" points="41.84,86.05 55.18,116.18 36.14,142.74 "/>
<polygon class="st2" points="81.18,119.18 116.18,81.18 164.18,103.18 157.18,153.18 107.18,164.18 "/>
<line class="st2" x1="56.18" y1="116.18" x2="81.18" y2="119.18"/>
<line class="st2" x1="111.18" y1="55.18" x2="116.18" y2="81.18"/>
<line class="st2" x1="164.18" y1="103.18" x2="186.18" y2="90.18"/>
<line class="st2" x1="176.18" y1="170.18" x2="157.18" y2="153.18"/>
<line class="st2" x1="96.18" y1="187.18" x2="107.18" y2="164.18"/>
<g>
	<g>
		<path class="st3" d="M33.18,95.68c0.28-19.97,12.78-37.93,31.6-44.88c21.08-7.78,44.53,0.24,57.74,18.14
			c1.89,2.56,6.23,0.07,4.32-2.52c-14.48-19.63-40.07-29.03-63.39-20.44c-20.95,7.71-34.96,27.4-35.27,49.7
			C28.13,98.9,33.13,98.9,33.18,95.68L33.18,95.68z"/>
	</g>
</g>
<g>
	<g>
		<path class="st3" d="M126.89,69.16c12.55-18.23,35.99-26.13,56.94-18.59c19.02,6.85,31.08,25.15,31.35,45.11
			c0.04,3.21,5.04,3.22,5,0c-0.29-22.28-13.86-42.36-35.02-49.93c-23.16-8.29-48.81,0.88-62.59,20.89
			C120.75,69.29,125.08,71.79,126.89,69.16L126.89,69.16z"/>
	</g>
</g>
<g>
	<g>
		<path class="st3" d="M28.18,95.68c-0.81,8.55,1.69,17.91,4.54,25.85c7.91,22.02,23.58,40.5,41.5,55.15
			c6.64,5.43,13.62,10.42,20.86,15.02c4.22,2.68,8.52,5.22,12.88,7.64c4.4,2.45,9.57,6.22,14.46,7.5c3.3,0.87,7.71-2.25,10.61-3.65
			c18.12-8.73,35.42-19.74,50.4-33.2c21.32-19.15,37.78-44.72,36.75-74.3c-0.11-3.21-5.11-3.22-5,0
			c1.66,47.45-41.73,81.32-79.99,100.87c-2.6,1.33-5.22,2.61-7.87,3.83c-0.86,0.4-1.73,0.79-2.6,1.17
			c-0.57,0.25-1.59,0.55-1.27,0.55c-0.11,0-0.26,0.17-0.37,0.15c0.61,0.11-1.7-1.48-2.31-1.79c-4.49-2.26-8.92-4.63-13.28-7.12
			c-7.74-4.43-15.27-9.26-22.46-14.55c-19.2-14.13-36.72-32.35-45.97-54.65c-3.57-8.6-6.78-18.97-5.88-28.46
			C33.48,92.48,28.48,92.5,28.18,95.68L28.18,95.68z"/>
	</g>
</g>
<g>
	<g>
		<path class="st3" d="M53.18,95.68c0.17-4.47,1.69-9.15,3.78-13.06c5.43-10.13,15.58-14.28,26.72-14.44c3.21-0.05,3.22-5.05,0-5
			c-12.25,0.17-23.75,4.74-30.26,15.56c-3,4.99-5.01,11.09-5.24,16.94C48.05,98.9,53.05,98.89,53.18,95.68L53.18,95.68z"/>
	</g>
</g>
</svg>
