<?xml version="1.0" encoding="utf-8"?>
<!-- Generator: Adobe Illustrator 24.0.1, SVG Export Plug-In . SVG Version: 6.00 Build 0)  -->
<svg version="1.1" id="Layer_1" xmlns="http://www.w3.org/2000/svg" xmlns:xlink="http://www.w3.org/1999/xlink" x="0px" y="0px"
	 viewBox="0 0 213.49 213.49" style="enable-background:new 0 0 213.49 213.49;" xml:space="preserve">
<style type="text/css">
	.st0{display:none;}
	.st1{display:inline;fill:#005CB9;}
	.st2{fill:none;stroke:#005CB9;stroke-width:5;stroke-miterlimit:10;}
	.st3{display:inline;}
	.st4{fill:#005CB9;}
	.st5{display:none;fill:none;stroke:#005CB9;stroke-width:5;stroke-miterlimit:10;}
</style>
<g class="st0">
	<path class="st1" d="M196.18,32.68c-0.63-0.39-1.41-0.43-2.08-0.11l-72.49,35.52c-0.04,0-0.08-0.01-0.12-0.01H96.62L24.16,32.57
		c-0.66-0.33-1.45-0.29-2.08,0.11c-0.63,0.39-1.01,1.08-1.01,1.82v120.38c0,0.82,0.47,1.56,1.2,1.93l71.93,35.24
		c0.39,0.43,0.95,0.7,1.57,0.7h25.72c0.13,0,0.25-0.02,0.37-0.04c0.09,0.01,0.18,0.04,0.27,0.04c0.32,0,0.65-0.07,0.94-0.22
		l72.91-35.73c0.73-0.36,1.2-1.11,1.2-1.93V34.5C197.19,33.76,196.81,33.07,196.18,32.68z M25.36,37.94l68.27,33.45v115.61
		l-68.27-33.45V37.94z M119.35,188.46H98.27V72.37h21.08V188.46z M192.91,153.54l-68.62,33.62V71.56l68.62-33.62V153.54z"/>
	<path class="st1" d="M39.06,29.45c15.51,10.33,26.23,12.05,36.6,13.71c3.61,0.58,7.01,1.12,10.66,2.02
		c14.24,3.49,19.98,12.02,20.77,13.29c0.18,0.41,0.49,0.77,0.92,1c0.3,0.17,0.62,0.24,0.95,0.25c0.04,0,0.08,0.02,0.12,0.02
		c0.35,0,0.7-0.08,1.02-0.26c0.43-0.24,0.74-0.6,0.93-1.02c0.8-1.29,6.55-9.79,20.76-13.28c3.65-0.89,7.05-1.44,10.66-2.02
		c10.37-1.66,21.09-3.38,36.6-13.71c0.99-0.66,1.25-1.99,0.6-2.97s-1.99-1.25-2.97-0.6c-14.73,9.81-24.53,11.38-34.9,13.05
		c-3.53,0.57-7.19,1.15-11,2.09c-12.16,2.98-18.77,9.25-21.7,12.85c-2.94-3.61-9.54-9.87-21.7-12.85c-3.81-0.94-7.47-1.52-11-2.09
		c-10.37-1.66-20.16-3.23-34.9-13.05c-0.98-0.66-2.32-0.39-2.97,0.6S38.08,28.79,39.06,29.45z"/>
	<path class="st1" d="M142.76,106.9c0.3,0,0.6-0.06,0.89-0.2l15.4-7.06v40.84c0,1.18,0.96,2.14,2.14,2.14s2.14-0.96,2.14-2.14V97.68
		l15.01-6.88c1.08-0.49,1.55-1.77,1.06-2.84c-0.49-1.08-1.77-1.55-2.84-1.06l-13.22,6.06V74.62c0-1.18-0.96-2.14-2.14-2.14
		s-2.14,0.96-2.14,2.14v20.31l-17.18,7.88c-1.08,0.49-1.55,1.77-1.06,2.84C141.17,106.43,141.94,106.9,142.76,106.9z"/>
</g>
<circle class="st2" cx="107.38" cy="107.38" r="90.75"/>
<polyline class="st2" points="45.77,173.7 79.13,170.13 97.67,197.14 "/>
<polyline class="st2" points="152.93,184.86 159.13,153.13 189.09,144.68 "/>
<polyline class="st2" points="195.35,86.07 169.13,73.13 168.44,39.98 "/>
<polyline class="st2" points="116.09,17.42 94.13,38.13 64.86,26.58 "/>
<polyline class="st2" points="24.79,69 39.13,99.13 20.09,125.7 "/>
<polygon class="st2" points="64.13,102.13 99.13,64.13 147.13,86.13 140.13,136.13 90.13,147.13 "/>
<line class="st2" x1="39.13" y1="99.13" x2="64.13" y2="102.13"/>
<line class="st2" x1="94.13" y1="38.13" x2="99.13" y2="64.13"/>
<line class="st2" x1="147.13" y1="86.13" x2="169.13" y2="73.13"/>
<line class="st2" x1="159.13" y1="153.13" x2="140.13" y2="136.13"/>
<line class="st2" x1="79.13" y1="170.13" x2="90.13" y2="147.13"/>
<g class="st0">
	<g class="st3">
		<path class="st4" d="M15.13,77.63c0.28-19.97,12.78-37.93,31.6-44.88c21.08-7.78,44.53,0.24,57.74,18.14
			c1.89,2.56,6.23,0.07,4.32-2.52C94.31,28.74,68.72,19.34,45.4,27.93c-20.95,7.71-34.96,27.4-35.27,49.7
			C10.09,80.85,15.09,80.85,15.13,77.63L15.13,77.63z"/>
	</g>
</g>
<g class="st0">
	<g class="st3">
		<path class="st4" d="M108.85,51.11c12.55-18.23,35.99-26.13,56.94-18.59c19.02,6.85,31.08,25.15,31.35,45.11
			c0.04,3.21,5.04,3.22,5,0c-0.29-22.28-13.86-42.36-35.02-49.93c-23.16-8.29-48.81,0.88-62.59,20.89
			C102.7,51.24,107.03,53.75,108.85,51.11L108.85,51.11z"/>
	</g>
</g>
<g class="st0">
	<g class="st3">
		<path class="st4" d="M10.13,77.63c-0.81,8.55,1.69,17.91,4.54,25.85c7.91,22.02,23.58,40.5,41.5,55.15
			c6.64,5.43,13.62,10.42,20.86,15.02c4.22,2.68,8.52,5.22,12.88,7.64c4.4,2.45,9.57,6.22,14.46,7.5c3.3,0.87,7.71-2.25,10.61-3.65
			c18.12-8.73,35.42-19.74,50.4-33.2c21.32-19.15,37.78-44.72,36.75-74.3c-0.11-3.21-5.11-3.22-5,0
			c1.66,47.45-41.73,81.32-79.99,100.87c-2.6,1.33-5.22,2.61-7.87,3.83c-0.86,0.4-1.73,0.79-2.6,1.17
			c-0.57,0.25-1.59,0.55-1.27,0.55c-0.11,0-0.26,0.17-0.37,0.15c0.61,0.11-1.7-1.48-2.31-1.79c-4.49-2.26-8.92-4.63-13.28-7.12
			c-7.74-4.43-15.27-9.26-22.46-14.55c-19.2-14.13-36.72-32.35-45.97-54.65c-3.57-8.6-6.78-18.97-5.88-28.46
			C15.44,74.43,10.43,74.45,10.13,77.63L10.13,77.63z"/>
	</g>
</g>
<g class="st0">
	<g class="st3">
		<path class="st4" d="M35.13,77.63c0.17-4.47,1.69-9.15,3.78-13.06c5.43-10.13,15.58-14.28,26.72-14.44c3.21-0.05,3.22-5.05,0-5
			c-12.25,0.17-23.75,4.74-30.26,15.56c-3,4.99-5.01,11.09-5.24,16.94C30.01,80.85,35.01,80.84,35.13,77.63L35.13,77.63z"/>
	</g>
</g>
</svg>
