<svg enable-background="new 0 0 800 800" viewBox="0 0 800 800" xmlns="http://www.w3.org/2000/svg"><g fill="#0067b0"><path d="m620.3 280.8c0-17-11.3-42.4-42.4-42.4-7.1 0-13.1 1.4-18.2 3.8v-24.4c0-30.6-19.7-52-47.8-52-9.8 0-18.5 2.6-25.7 7.6-.9-4.8-2.1-9.9-4.1-14.7-7.9-19.9-23.6-30.5-45.4-30.5-11.9 0-22.3 4.4-29.9 12.8-3.4 3.8-6.1 8.1-8.2 12.7-8.1-8-19.1-12.1-32-12.1-15.4 0-27.6 4.8-36.4 14.1-13.4 14.3-13.2 33.7-13.1 37.3v152.6c0 27-7.1 40.8-10.8 42.1-1 .4-5.4-.7-13-9.9-27.2-32.9-54.5-61.4-90-48.5-9.6 3.5-16 9.3-19 17.4-7.6 20.2 7.9 48.1 36.1 98.9l1.3 2.3c27.8 50.2 65.6 104.6 79.5 123.1 3.4 4.5 8.5 7.5 14.1 8.2.9.1 1.8.2 2.7.2 4.6 0 9.1-1.5 12.8-4.5 57.3-45.3 22.8-149.9 21.3-154.3-2-5.8-8.2-8.9-14-6.9s-8.9 8.2-6.9 14c.1.2 8.1 24.2 10 52.9 3 44.2-10.6 65.7-23.1 76.1-14.2-18.9-50.3-71.1-77.1-119.5l-1.3-2.3c-20.7-37.4-38.7-69.8-34.7-80.4.3-.7 1-2.6 5.8-4.3 17.8-6.5 34.3 4.1 65.4 41.8 15.9 19.2 29.2 19.7 37.6 16.7 9.1-3.2 15.9-11.7 20.3-25.1 3.4-10.4 5.2-23.5 5.2-37.9v-153.1c0-.2 0-.4 0-.6 0-.1-.6-13.3 7.2-21.4 4.5-4.7 11.1-7 20.2-7 7.6 0 13.2 2.1 17.1 6.5 4.6 5 6.6 12.6 7.4 19.1-.2 6.3.1 11.2.3 13.1v124c0 6.1 5 11.1 11.1 11.1s11.1-5 11.1-11.1v-124c.2-2 .5-7.2-.2-13.9.5-10.9 2.9-25 9.8-32.6 3.5-3.8 7.8-5.6 13.6-5.6 20.4 0 29 13.9 29 46.6v127c0 6.1 5 11.1 11.1 11.1s11.1-5 11.1-11.1v-111.5c.1-1.3 1-7.1 4-12.9 4.3-8 10.6-11.7 20-11.7 19 0 25.7 16.1 25.7 29.9v134.5c0 6.1 5 11.1 11.1 11.1s11.1-5 11.1-11.1v-73.5s.2-5 2.5-9.7c1.8-3.6 5.4-8.5 15.7-8.5 8.2 0 13.6 2.7 17 8.6 2.7 4.7 3.3 10.1 3.3 11.7v152.5.7c0 .8 4.4 80.2-46.4 141.8-39.9 48.5-125.4 46.8-158.1 44.2 5.3-14.4 16.5-38.5 36-55.6 30.7-26.8 87.2-48.8 87.8-49 5.7-2.2 8.5-8.6 6.3-14.3s-8.6-8.5-14.3-6.3c-2.5 1-60.7 23.6-94.4 52.9-34.9 30.4-46.5 77.3-46.9 79.3-.7 3-.1 6.2 1.6 8.8s4.5 4.3 7.5 4.8c1.9.3 19.4 2.8 43.6 2.8 44.1 0 110.7-8.3 147.9-53.5 55.1-67 51.8-149.7 51.4-156.9z"/><path d="m439.6 502.1c2.2 2.7 5.4 4 8.5 4 2.5 0 5-.8 7-2.5l64.8-53.5c4.7-3.9 5.4-10.9 1.5-15.6s-10.9-5.4-15.6-1.5l-64.8 53.5c-4.6 3.9-5.3 10.9-1.4 15.6z"/><path d="m493.3 379.3c-4.9-3.7-11.8-2.7-15.5 2.2l-63.3 84.2c-3.7 4.9-2.7 11.8 2.2 15.5 2 1.5 4.3 2.2 6.6 2.2 3.4 0 6.7-1.5 8.9-4.4l63.3-84.2c3.6-4.9 2.7-11.9-2.2-15.5z"/><path d="m434.9 366c-5.6-2.3-12.1.4-14.5 6l-30.8 74.4c-2.3 5.6.4 12.1 6 14.5 1.4.6 2.8.8 4.2.8 4.4 0 8.5-2.6 10.2-6.9l30.8-74.4c2.4-5.6-.3-12-5.9-14.4z"/><path d="m683 117c-75.5-75.4-175.8-117-282.5-117s-207 41.5-282.5 117-117 175.8-117 282.5 41.5 207 117 282.5 175.8 117 282.5 117 207-41.5 282.5-117 117-175.8 117-282.5-41.5-207-117-282.5zm-15.7 549.3c-71.3 71.3-166 110.5-266.8 110.5s-195.6-39.2-266.8-110.5-110.5-166-110.5-266.8 39.2-195.6 110.5-266.8 166-110.5 266.8-110.5 195.6 39.2 266.8 110.5 110.5 166 110.5 266.8-39.2 195.6-110.5 266.8z"/></g></svg>