<svg enable-background="new 0 0 800 800" viewBox="0 0 800 800" xmlns="http://www.w3.org/2000/svg"><g fill="#0067b0"><path d="m566.2 620.7h-105.3v-252.9h100.2c6.1 0 11.1-5 11.1-11.1v-95.8c0-6.1-5-11.1-11.1-11.1h-100.2v-109.5c0-6.1-5-11.1-11.1-11.1h-95.9c-6.1 0-11.1 5-11.1 11.1v109.6h-100.2c-6.1 0-11.1 5-11.1 11.1v95.8c0 6.1 5 11.1 11.1 11.1h100.2v252.9h-105.3c-6.1 0-11.1 5-11.1 11.1s5 11.1 11.1 11.1h116.4c6.1 0 11.1-5 11.1-11.1v-275.2c0-6.1-5-11.1-11.1-11.1h-100.2v-73.6h100.2c6.1 0 11.1-5 11.1-11.1v-109.5h73.7v109.6c0 6.1 5 11.1 11.1 11.1h100.2v73.7h-100.2c-6.1 0-11.1 5-11.1 11.1v275.1c0 6.1 5 11.1 11.1 11.1h116.4c6.1 0 11.1-5 11.1-11.1s-5-11.3-11.1-11.3z"/><path d="m682.8 117.6c-75.5-75.5-176-117.1-282.8-117.1s-207.3 41.6-282.8 117.1-117.2 175.9-117.2 282.7 41.6 207.2 117.2 282.7 176 117 282.8 117 207.3-41.6 282.8-117.1 117.2-175.9 117.2-282.6-41.6-207.2-117.2-282.7zm-15.6 549.6c-71.4 71.4-166.3 110.6-267.2 110.6s-195.8-39.3-267.2-110.6-110.7-166.1-110.7-267 39.3-195.7 110.7-267c71.4-71.2 166.3-110.5 267.2-110.5s195.8 39.3 267.2 110.6 110.7 166.1 110.7 267-39.4 195.6-110.7 266.9z"/></g></svg>