<svg enable-background="new 0 0 800 800" viewBox="0 0 800 800" xmlns="http://www.w3.org/2000/svg"><g fill="#0067b0"><path d="m491.3 378v-56.5l8.1 8.1c2.2 2.1 5 3.2 7.8 3.2 2.9 0 5.7-1.1 7.9-3.3 4.3-4.3 4.3-11.4 0-15.7l-104.4-103.7v-31.7h17.2c6.1 0 11.1-5 11.1-11.1s-5-11.1-11.1-11.1h-17.2v-16.2c0-6.1-5-11.1-11.1-11.1s-11.1 5-11.1 11.1v16.2h-17.1c-6.1 0-11.1 5-11.1 11.1s5 11.1 11.1 11.1h17.1v31.7l-104.2 103.8c-4.3 4.3-4.4 11.3 0 15.7 2.2 2.2 5 3.3 7.9 3.3 2.8 0 5.6-1.1 7.8-3.2l8.1-8.1v56.4l-108.5 114.4c-4.2 4.4-4 11.5.4 15.7 2.1 2 4.9 3 7.6 3 2.9 0 5.9-1.2 8-3.5l22.6-23.9v107c0 6.1 5 11.1 11.1 11.1s11.1-5 11.1-11.1v-130.3l66.7-70.4c2-2.1 3-4.8 3-7.6v-82.9l69.5-69.1 69.5 69.1v82.9c0 2.8 1.1 5.6 3 7.6l66 69.7v.6 128c0 6.1 5 11.1 11.1 11.1s11.1-5 11.1-11.1v-105.3l23.3 24.6c2.2 2.3 5.1 3.5 8 3.5 2.7 0 5.5-1 7.6-3 4.4-4.2 4.6-11.2.4-15.7z"/><path d="m550 620.2h-300.7c-6.1 0-11.1 5-11.1 11.1s5 11.1 11.1 11.1h300.7c6.1 0 11.1-5 11.1-11.1s-5-11.1-11.1-11.1z"/><path d="m426 386.5c6.1 0 11.1-5 11.1-11.1v-40.1c0-20.6-16.8-37.4-37.4-37.4s-37.4 16.8-37.4 37.4v40.1c0 6.1 5 11.1 11.1 11.1s11.1-5 11.1-11.1v-40.1c0-8.4 6.9-15.3 15.3-15.3s15.3 6.9 15.3 15.3v40.1c-.2 6.1 4.8 11 10.9 11.1z"/><path d="m341.6 498v84.8c0 6.1 5 11.1 11.1 11.1s11.1-5 11.1-11.1v-84.8c0-19.8 16.1-35.8 35.8-35.8s35.8 16.1 35.8 35.8v84.8c0 6.1 5 11.1 11.1 11.1s11.1-5 11.1-11.1v-84.8c0-32-26-58-58-58s-57.9 26-58 58z"/><path d="m682 117.3c-75.5-75.5-175.8-117-282.5-117s-207 41.5-282.5 117-117 175.8-117 282.5 41.6 207 117 282.5c75.5 75.5 175.8 117 282.5 117s207-41.6 282.5-117c75.5-75.5 117-175.8 117-282.5s-41.5-207.1-117-282.5zm-15.6 549.4c-71.3 71.3-166 110.5-266.9 110.5s-195.5-39.3-266.8-110.5c-71.3-71.3-110.5-166.1-110.5-266.9s39.2-195.6 110.5-266.9 166-110.5 266.9-110.5 195.6 39.3 266.9 110.5 110.5 166 110.5 266.9-39.3 195.6-110.6 266.9z"/></g></svg>