<?xml version="1.0" encoding="utf-8"?>
<!-- Generator: Adobe Illustrator 23.1.1, SVG Export Plug-In . SVG Version: 6.00 Build 0)  -->
<svg version="1.1" id="Layer_1" xmlns="http://www.w3.org/2000/svg" xmlns:xlink="http://www.w3.org/1999/xlink" x="0px" y="0px"
	 viewBox="0 0 61 61" style="enable-background:new 0 0 61 61;" xml:space="preserve">
<style type="text/css">
	.st0{fill-rule:evenodd;clip-rule:evenodd;fill:#FFFFFF;}
	.st1{fill-rule:evenodd;clip-rule:evenodd;fill:#F26722;}
</style>
<title>education-orange</title>
<g>
	<circle class="st0" cx="30.5" cy="30.7" r="29.8"/>
	<path class="st1" d="M47.3,18.9l-4.5-4.5c-0.6-0.6-1.4-0.9-2.2-0.9s-1.7,0.4-2.2,0.9l-2.1,2.1l9.1,9.1l2.1-2.1
		c0.6-0.6,0.9-1.4,0.9-2.2C48.2,20.3,47.9,19.4,47.3,18.9z M40.7,23.6L38,20.9L19.6,39.3h0.2c0.6,0,1.3,0.3,1.9,0.7
		c0.5,0.5,0.7,1.1,0.7,1.9v0.2L40.7,23.6z M23.2,44h-1.5c-0.3,0-0.5-0.1-0.6-0.3s-0.3-0.5-0.3-0.6v-1.5c0-0.3-0.1-0.5-0.3-0.6
		c-0.2-0.2-0.5-0.3-0.6-0.3h-1.5c-0.3,0-0.5-0.1-0.6-0.3s-0.3-0.4-0.3-0.6v-1.5c0-0.3-0.1-0.5-0.3-0.6c-0.2-0.2-0.5-0.3-0.6-0.3
		h-1.5l-2.1,7.9c0.8,0.2,1.6,0.6,2.1,1.2c0.6,0.6,1,1.3,1.2,2.1l7.9-2.1V45c0-0.3-0.1-0.5-0.3-0.6C23.7,44.1,23.5,44,23.2,44z
		 M23.8,42.7c0.4,0.1,0.7,0.4,1,0.6c0.5,0.5,0.7,1,0.7,1.7l18.3-18.3l-2-2C41.8,24.7,23.8,42.7,23.8,42.7z M12.7,46.6l-0.8,3l3-0.8
		c-0.1-0.6-0.4-1-0.7-1.4S13.3,46.7,12.7,46.6z M18.8,37.7l18-18l-2-2L16.4,36c0.6,0,1.2,0.3,1.7,0.7C18.5,37,18.7,37.4,18.8,37.7z"
		/>
</g>
</svg>
