<svg xmlns="http://www.w3.org/2000/svg" viewBox="0 0 176.53 178.52"><defs><style>.cls-1{fill:#fff;}</style></defs><title>Asset 128</title><g id="Layer_2" data-name="Layer 2"><g id="Layer_1-2" data-name="Layer 1"><path class="cls-1" d="M88.27,67.82A33.91,33.91,0,1,0,54.36,33.91,33.95,33.95,0,0,0,88.27,67.82Zm0-63.53A29.62,29.62,0,1,1,58.64,33.91,29.66,29.66,0,0,1,88.27,4.29Z"/><path class="cls-1" d="M176.43,147.43a2.15,2.15,0,0,0-2.71-1.36l-85.09,28L2.83,145.36a2.15,2.15,0,1,0-1.37,4.07l86.48,29a2,2,0,0,0,.68.12,2.19,2.19,0,0,0,.67-.11l85.77-28.27A2.15,2.15,0,0,0,176.43,147.43Z"/><path class="cls-1" d="M12.7,136.61a2.15,2.15,0,0,0,2.93-.8l3.64-6.43c6.46,1.13,32.49,6,45.18,12a63.21,63.21,0,0,1,21.91,17.09,2.14,2.14,0,0,0,1.73.87l.18,0,.17,0a2.14,2.14,0,0,0,1.73-.87,63,63,0,0,1,21.92-17.09c12.75-6.07,39-10.92,45.28-12l4.38,6.58a2.14,2.14,0,0,0,3.57-2.37l-5.15-7.75a2.16,2.16,0,0,0-2.14-.93c-1.33.22-32.77,5.47-47.79,12.62a68.66,68.66,0,0,0-22,16.52,68.85,68.85,0,0,0-22-16.52c-15-7.15-46.46-12.4-47.79-12.62A2.15,2.15,0,0,0,16.29,126l-4.39,7.74A2.13,2.13,0,0,0,12.7,136.61Z"/><path class="cls-1" d="M31,115.53a1.83,1.83,0,0,0,.33,0,2.15,2.15,0,0,0,2.12-1.81l3.73-24c.93-7.08,10-12.27,21.84-12.53,2.47,2.53,11.25,9.89,29.3,9.89,17.09,0,26.2-7.45,28.72-9.89,12.82.2,21,4.74,22,12.27l3.72,24a2.15,2.15,0,1,0,4.24-.66l-3.72-24c-.5-3.74-3.92-16-27.17-16a2.19,2.19,0,0,0-1.62.74c-.08.09-8.28,9.17-26.2,9.17-19.09,0-26.62-9-26.69-9.09a2.11,2.11,0,0,0-1.68-.82c-14.64,0-25.76,6.69-27,16.22l-3.73,24A2.15,2.15,0,0,0,31,115.53Z"/></g></g></svg>