<?xml version="1.0" encoding="utf-8"?>
<!-- Generator: Adobe Illustrator 24.0.3, SVG Export Plug-In . SVG Version: 6.00 Build 0)  -->
<svg version="1.1" id="Layer_1" xmlns="http://www.w3.org/2000/svg" xmlns:xlink="http://www.w3.org/1999/xlink" x="0px" y="0px"
	 viewBox="0 0 252 252" style="enable-background:new 0 0 252 252;" xml:space="preserve">
<style type="text/css">
	.st0{fill:#0067B0;}
</style>
<path class="st0" d="M193.2,108.1l-26.1-17.7c-6.2-4.1-13.9-5.2-21-3l-32.3,10.1V77.2c0-0.4-0.1-0.8-0.4-1.2l16.3-5.1
	c3.9-1.2,6.5-4.8,6.5-8.9V43.6c0-2.2-1.1-4.4-2.9-5.7c-1.8-1.3-4.1-1.7-6.2-1L76.6,52.8c-3.9,1.2-6.5,4.8-6.5,8.9v15.1
	c0,3,1.4,5.8,3.9,7.6c1.7,1.2,3.6,1.8,5.6,1.8c0.9,0,1.9-0.1,2.8-0.4l10.5-3.3v19.8c-0.6-0.2-1.1-0.5-1.6-0.8L75.6,91.4
	c-3.7-2.5-8.4-3.1-12.7-1.7l-1.4,0.5c-3.1,1-5.2,3.6-5.7,6.8s1,6.3,3.7,8L84,121.1l-7.7,2.4c-2.9,0.9-5,3.4-5.3,6.4
	c-0.3,2.4,0.5,4.8,2.2,6.6c-0.1,0.3-0.2,0.5-0.2,0.8l-1.5,48.9c0,1.2,0.9,2.2,2.1,2.2s2.2-0.9,2.2-2.1l0,0l1.4-47l34.8,23.1
	c1.5,1,3.2,1.8,5,2.2v48.7c0,1.2,1,2.1,2.1,2.1c1.2,0,2.1-1,2.1-2.1V165c1.4-0.1,2.9-0.3,4.3-0.8l46.5-15.6l1.4,47.3
	c0,1.2,1,2.1,2.1,2.1l0.1,0c1.2,0,2.1-1,2.1-2.2c0,0,0,0,0,0l-1.5-48.6c2.4-1.1,4.1-3.4,4.5-6c0.4-3-0.9-5.9-3.4-7.6L169,128
	l22.5-7.5c2.5-0.8,4.3-3,4.7-5.7C196.5,112.1,195.4,109.5,193.2,108.1L193.2,108.1z M81.1,81.7c-1.6,0.5-3.3,0.2-4.6-0.8
	c-1.3-1-2.1-2.5-2.1-4.2V61.7c0-2.2,1.4-4.1,3.5-4.8L128.5,41c0.3-0.1,0.5-0.1,0.8-0.1c0.6,0,1.1,0.2,1.6,0.5
	c0.7,0.5,1.1,1.3,1.1,2.2V62c0,2.2-1.4,4.1-3.5,4.8L81.1,81.7z M109.5,77.2v21.6L98,102.4c-0.3,0.1-0.5,0.2-0.8,0.2V82.3
	c0-0.4-0.1-0.7-0.3-1L109.5,77.2z M164.2,129.9l10.8,7.3c1.2,0.7,1.8,2.1,1.6,3.5c-0.2,1.4-1.1,2.5-2.4,2.9l-49.8,16.7
	c-3.3,1.1-7,0.6-9.9-1.3L76.8,134c-1.2-0.8-1.8-2.1-1.6-3.5c0.2-1.4,1.1-2.5,2.4-2.9l11.1-3.4l20.4,13.5c4.2,2.8,9.1,4.2,14,4.2
	c2.7,0,5.5-0.4,8.1-1.3l32.6-10.9C164,129.7,164.1,129.8,164.2,129.9z M190.1,116.4l-60.2,20.2c-6.2,2.1-12.9,1.2-18.4-2.4
	l-49.6-32.8c-1.3-0.9-2-2.3-1.8-3.9c0.2-1.6,1.2-2.8,2.7-3.3l1.4-0.5c1-0.3,2.1-0.5,3.2-0.5c2,0,4,0.6,5.8,1.8L89,105.1
	c3,2,6.8,2.5,10.3,1.5l48.1-15c5.8-1.8,12.2-0.9,17.3,2.5l26.1,17.7c0.9,0.6,1.3,1.6,1.2,2.6C191.8,115.2,191.1,116.1,190.1,116.4z"
	/>
</svg>
