<?xml version="1.0" encoding="utf-8"?>
<!-- Generator: Adobe Illustrator 24.0.3, SVG Export Plug-In . SVG Version: 6.00 Build 0)  -->
<svg version="1.1" id="Layer_1" xmlns="http://www.w3.org/2000/svg" xmlns:xlink="http://www.w3.org/1999/xlink" x="0px" y="0px"
	 viewBox="0 0 252 252" style="enable-background:new 0 0 252 252;" xml:space="preserve">
<style type="text/css">
	.st0{fill:#0067B0;}
</style>
<path class="st0" d="M126,104.6c18.7,0,33.9-15.2,33.9-33.9S144.7,36.7,126,36.7S92.1,52,92.1,70.7S107.3,104.6,126,104.6z M126,41
	c16.3,0,29.6,13.3,29.6,29.6s-13.3,29.6-29.6,29.6S96.4,87,96.4,70.7S109.7,41,126,41z M214.2,184.2c-0.4-1.1-1.6-1.7-2.7-1.4
	c0,0,0,0,0,0l-85.1,28l-85.8-28.8c-1.1-0.4-2.3,0.2-2.7,1.4s0.2,2.3,1.4,2.7l0,0l86.5,29c0.4,0.1,0.9,0.1,1.4,0l85.8-28.3
	C213.9,186.5,214.5,185.3,214.2,184.2L214.2,184.2z"/>
<path class="st0" d="M50.4,173.4c1,0.6,2.3,0.2,2.9-0.8l3.6-6.4c6.5,1.1,32.5,6,45.2,12c14.2,6.8,21.8,17,21.9,17.1
	c0.4,0.6,1.1,0.9,1.7,0.9c0.1,0,0.1,0,0.2,0c0.1,0,0.1,0,0.2,0c0.7,0,1.3-0.3,1.7-0.9c0.1-0.1,7.7-10.3,21.9-17.1
	c12.8-6.1,39-10.9,45.3-12l4.4,6.6c0.7,1,2,1.2,3,0.6c1-0.7,1.2-2,0.6-2.9l-5.2-7.7c-0.5-0.7-1.3-1.1-2.1-0.9
	c-1.3,0.2-32.8,5.5-47.8,12.6c-11.6,5.5-19,13-22,16.5c-3-3.5-10.4-11-22-16.5c-15-7.1-46.5-12.4-47.8-12.6
	c-0.9-0.1-1.8,0.3-2.2,1.1l-4.4,7.7C49,171.5,49.4,172.8,50.4,173.4C50.4,173.4,50.4,173.4,50.4,173.4L50.4,173.4z M68.7,152.3
	c1.2,0.2,2.3-0.6,2.4-1.8l3.7-24.1c0.9-7.1,10.1-12.3,21.8-12.5c2.5,2.5,11.3,9.9,29.3,9.9c17.1,0,26.2-7.5,28.7-9.9
	c12.8,0.2,21,4.7,22,12.3l3.7,24c0.2,1.2,1.3,2,2.4,1.8c0,0,0,0,0,0c1.2-0.2,2-1.3,1.8-2.4l-3.7-24c-0.5-3.7-3.9-16-27.2-16
	c-0.6,0-1.2,0.3-1.6,0.7c-0.1,0.1-8.3,9.2-26.2,9.2c-19.1,0-26.6-9-26.7-9.1c-0.4-0.5-1-0.8-1.7-0.8c-14.6,0-25.8,6.7-27,16.2
	l-3.7,24C66.7,151,67.5,152.1,68.7,152.3z"/>
</svg>
