<?xml version="1.0" encoding="UTF-8"?> <svg xmlns="http://www.w3.org/2000/svg" id="Layer_1" data-name="Layer 1" viewBox="0 0 187.56 165.2"><title>Financial accountability graphic</title><circle id="Oval-35" cx="85.08" cy="89.25" r="54.5" fill="#f37021"></circle><path id="Path-204" d="M118.29,51.91A76.59,76.59,0,0,0,96,47l.6,63L137,63.91A54.88,54.88,0,0,0,118.29,51.91Z" transform="translate(-11.42 -18.25)" fill="#f5c39f" stroke="#fff" stroke-width="5"></path><g id="confetti-copy"><circle id="Oval-8" cx="40.54" cy="47.24" r="1.83" fill="#f5c39f"></circle><circle id="Oval-8-Copy" cx="23.91" cy="70.78" r="1.83" fill="#f5c39f"></circle><path id="Line" d="M39.48,55.1v6.23" transform="translate(-11.42 -18.25)" fill="none" stroke="#f37021" stroke-linecap="round" stroke-width="1.22"></path><path id="Line-Copy-2" d="M42.66,58.15H36.43" transform="translate(-11.42 -18.25)" fill="none" stroke="#f37021" stroke-linecap="round" stroke-width="1.22"></path><g id="asterick---1"><path id="Line-Copy-6" d="M41.82,73v6.23" transform="translate(-11.42 -18.25)" fill="none" stroke="#f37021" stroke-linecap="round" stroke-width="1.22"></path><path id="Line-Copy-5" d="M45,76H38.77" transform="translate(-11.42 -18.25)" fill="none" stroke="#f37021" stroke-linecap="round" stroke-width="1.22"></path><path id="Line-Copy-8" d="M39.62,73.84l4.4,4.4" transform="translate(-11.42 -18.25)" fill="none" stroke="#f37021" stroke-linecap="round" stroke-width="1.22"></path><path id="Line-Copy-7" d="M44.08,73.84l-4.4,4.4" transform="translate(-11.42 -18.25)" fill="none" stroke="#f37021" stroke-linecap="round" stroke-width="1.22"></path></g></g><path d="M16.45,175.92a2.51,2.51,0,0,1,1.32.89,2.46,2.46,0,0,1,.43,1.46,2.74,2.74,0,0,1-.25,1.17,2.58,2.58,0,0,1-.69.9,3.19,3.19,0,0,1-1.07.57,4.79,4.79,0,0,1-2.76,0,3.18,3.18,0,0,1-1.07-.57,2.58,2.58,0,0,1-.69-.9,2.73,2.73,0,0,1-.25-1.17,2.46,2.46,0,0,1,.43-1.46,2.5,2.5,0,0,1,1.32-.89,2.25,2.25,0,0,1-1.06-.84,2.36,2.36,0,0,1-.35-1.32,2.39,2.39,0,0,1,.23-1,2.55,2.55,0,0,1,.63-.83,2.94,2.94,0,0,1,1-.55,4,4,0,0,1,2.48,0,2.94,2.94,0,0,1,1,.55,2.54,2.54,0,0,1,.63.83,2.39,2.39,0,0,1,.23,1,2.36,2.36,0,0,1-.35,1.32A2.25,2.25,0,0,1,16.45,175.92Zm-1.65,3.9a2,2,0,0,0,.72-.12,1.49,1.49,0,0,0,.52-.33,1.34,1.34,0,0,0,.32-.5,1.79,1.79,0,0,0,.11-.63A1.57,1.57,0,0,0,16,177a1.74,1.74,0,0,0-1.23-.41,1.74,1.74,0,0,0-1.23.41,1.57,1.57,0,0,0-.45,1.21,1.78,1.78,0,0,0,.11.63,1.34,1.34,0,0,0,.32.5,1.5,1.5,0,0,0,.52.33A2,2,0,0,0,14.8,179.81Zm0-7.42a1.62,1.62,0,0,0-.64.12,1.29,1.29,0,0,0-.45.31,1.22,1.22,0,0,0-.26.44,1.64,1.64,0,0,0-.08.53,2.23,2.23,0,0,0,.07.56,1.29,1.29,0,0,0,.24.49,1.2,1.2,0,0,0,.45.34,1.88,1.88,0,0,0,1.36,0,1.2,1.2,0,0,0,.45-.34,1.29,1.29,0,0,0,.24-.49,2.23,2.23,0,0,0,.07-.56,1.59,1.59,0,0,0-.09-.53,1.29,1.29,0,0,0-.26-.44,1.26,1.26,0,0,0-.45-.31A1.62,1.62,0,0,0,14.8,172.39Z" transform="translate(-11.42 -18.25)" fill="#f37021"></path><path d="M26.09,171.25V172a1.67,1.67,0,0,1-.07.52,2.81,2.81,0,0,1-.14.33l-3.7,7.61a1.14,1.14,0,0,1-.32.4.88.88,0,0,1-.56.17H20.1l3.77-7.46q.13-.23.25-.42a3.09,3.09,0,0,1,.28-.37H19.73a.39.39,0,0,1-.38-.38v-1.13Z" transform="translate(-11.42 -18.25)" fill="#f37021"></path><path d="M31.58,173.61a2.58,2.58,0,0,1-.19,1,2.35,2.35,0,0,1-.5.76,2.15,2.15,0,0,1-.72.48,2.24,2.24,0,0,1-.86.17,2.35,2.35,0,0,1-.9-.17,2,2,0,0,1-.71-.48,2.21,2.21,0,0,1-.47-.76,2.81,2.81,0,0,1-.17-1,3,3,0,0,1,.17-1,2.24,2.24,0,0,1,.47-.78,2.05,2.05,0,0,1,.71-.49,2.3,2.3,0,0,1,.9-.17,2.32,2.32,0,0,1,.9.17,2.08,2.08,0,0,1,.72.49,2.22,2.22,0,0,1,.47.78A2.94,2.94,0,0,1,31.58,173.61Zm3.25-2.1a1.08,1.08,0,0,1,.21-.18.59.59,0,0,1,.33-.08h1.21l-7.25,9.51a.74.74,0,0,1-.21.18.57.57,0,0,1-.3.07H27.58Zm-4.53,2.1a2.35,2.35,0,0,0-.08-.65,1.2,1.2,0,0,0-.21-.42.75.75,0,0,0-.31-.23,1,1,0,0,0-.38-.07,1,1,0,0,0-.38.07.71.71,0,0,0-.3.23,1.23,1.23,0,0,0-.2.42,2.44,2.44,0,0,0-.07.65,2.27,2.27,0,0,0,.07.63,1.16,1.16,0,0,0,.2.41.7.7,0,0,0,.3.22,1,1,0,0,0,.38.07,1.07,1.07,0,0,0,.38-.07.75.75,0,0,0,.31-.22,1.14,1.14,0,0,0,.21-.41A2.19,2.19,0,0,0,30.29,173.61Zm6.8,5.1a2.58,2.58,0,0,1-.19,1,2.35,2.35,0,0,1-.5.76,2.22,2.22,0,0,1-1.58.66,2.3,2.3,0,0,1-.9-.17,2.07,2.07,0,0,1-.71-.49,2.22,2.22,0,0,1-.47-.76,2.81,2.81,0,0,1-.17-1,3,3,0,0,1,.17-1,2.25,2.25,0,0,1,.47-.78,2.08,2.08,0,0,1,.71-.49,2.31,2.31,0,0,1,.9-.17,2.34,2.34,0,0,1,.9.17,2.07,2.07,0,0,1,.72.49,2.28,2.28,0,0,1,.47.78A2.91,2.91,0,0,1,37.09,178.71Zm-1.29,0a2.47,2.47,0,0,0-.07-.66,1.18,1.18,0,0,0-.21-.42.75.75,0,0,0-.31-.23,1,1,0,0,0-.38-.07,1,1,0,0,0-.38.07.73.73,0,0,0-.3.23,1.18,1.18,0,0,0-.2.42,2.57,2.57,0,0,0-.07.66,2.42,2.42,0,0,0,.07.63,1.1,1.1,0,0,0,.2.41.73.73,0,0,0,.3.22,1,1,0,0,0,.38.07,1.07,1.07,0,0,0,.38-.07.75.75,0,0,0,.31-.22,1.1,1.1,0,0,0,.21-.41A2.32,2.32,0,0,0,35.8,178.71Z" transform="translate(-11.42 -18.25)" fill="#f37021"></path><path d="M45.15,171.25a5.59,5.59,0,0,1,1.69.23,3.27,3.27,0,0,1,1.18.64,2.54,2.54,0,0,1,.69,1,3.39,3.39,0,0,1,.23,1.26,3.46,3.46,0,0,1-.24,1.3,2.69,2.69,0,0,1-.71,1,3.29,3.29,0,0,1-1.18.66,5.3,5.3,0,0,1-1.66.24H43.79V181H42v-9.76Zm0,4.91A2.71,2.71,0,0,0,46,176a1.64,1.64,0,0,0,.62-.36,1.45,1.45,0,0,0,.37-.57,2.18,2.18,0,0,0,.12-.75,2,2,0,0,0-.12-.71,1.4,1.4,0,0,0-.36-.54,1.63,1.63,0,0,0-.61-.34,2.9,2.9,0,0,0-.88-.12H43.79v3.5Z" transform="translate(-11.42 -18.25)" fill="#f37021"></path><path d="M51.54,175.28a3,3,0,0,1,.77-1,1.64,1.64,0,0,1,1.05-.35,1.29,1.29,0,0,1,.77.21L54,175.41a.32.32,0,0,1-.1.17.27.27,0,0,1-.17.05l-.3,0a2.32,2.32,0,0,0-.39,0,1.4,1.4,0,0,0-.49.08,1.25,1.25,0,0,0-.39.23,1.6,1.6,0,0,0-.3.37,3.62,3.62,0,0,0-.25.49V181H50v-6.93h1a.4.4,0,0,1,.49.42Z" transform="translate(-11.42 -18.25)" fill="#f37021"></path><path d="M57.87,174a3.79,3.79,0,0,1,1.4.25,3.08,3.08,0,0,1,1.08.71,3.12,3.12,0,0,1,.69,1.12,4.63,4.63,0,0,1,0,3,3.18,3.18,0,0,1-.69,1.13,3,3,0,0,1-1.08.72,3.79,3.79,0,0,1-1.4.25,3.83,3.83,0,0,1-1.41-.25,3,3,0,0,1-1.08-.72,3.21,3.21,0,0,1-.7-1.13,4.57,4.57,0,0,1,0-3,3.15,3.15,0,0,1,.7-1.12,3.07,3.07,0,0,1,1.08-.71A3.83,3.83,0,0,1,57.87,174Zm0,5.85a1.47,1.47,0,0,0,1.28-.58,2.91,2.91,0,0,0,.42-1.7,2.94,2.94,0,0,0-.42-1.71,1.46,1.46,0,0,0-1.28-.59,1.49,1.49,0,0,0-1.3.59,3.64,3.64,0,0,0,0,3.4A1.5,1.5,0,0,0,57.87,179.82Z" transform="translate(-11.42 -18.25)" fill="#f37021"></path><path d="M68.58,174.32v.62q0,.3-.36.36l-.62.12a2.11,2.11,0,0,1,.14.78,2,2,0,0,1-.78,1.63,2.65,2.65,0,0,1-.86.45,3.5,3.5,0,0,1-1.07.16l-.39,0-.37-.05q-.32.2-.32.44a.32.32,0,0,0,.19.31,1.58,1.58,0,0,0,.51.14,7.09,7.09,0,0,0,.72.05l.83,0a6.56,6.56,0,0,1,.83.12,2.41,2.41,0,0,1,.72.27,1.4,1.4,0,0,1,.51.5,1.52,1.52,0,0,1,.19.81,1.9,1.9,0,0,1-.23.89,2.39,2.39,0,0,1-.65.77,3.41,3.41,0,0,1-1.05.54,4.52,4.52,0,0,1-1.42.21,5.46,5.46,0,0,1-1.36-.15,3.26,3.26,0,0,1-1-.41,1.75,1.75,0,0,1-.57-.58,1.37,1.37,0,0,1-.19-.69,1.17,1.17,0,0,1,.29-.81,2,2,0,0,1,.81-.52,1.16,1.16,0,0,1-.44-.38,1.08,1.08,0,0,1-.16-.62,1,1,0,0,1,.06-.32,1.37,1.37,0,0,1,.17-.33,1.65,1.65,0,0,1,.28-.31,2,2,0,0,1,.4-.26,2.18,2.18,0,0,1-.83-.76,2,2,0,0,1-.3-1.11,2,2,0,0,1,.78-1.64,2.62,2.62,0,0,1,.87-.45,3.93,3.93,0,0,1,1.93-.06,2.84,2.84,0,0,1,.72.27Zm-1.66,7a.46.46,0,0,0-.12-.33.81.81,0,0,0-.33-.2,2.48,2.48,0,0,0-.49-.1l-.59-.05-.65,0-.65-.05a1.56,1.56,0,0,0-.45.36.74.74,0,0,0-.17.49.67.67,0,0,0,.09.34.77.77,0,0,0,.29.27,1.73,1.73,0,0,0,.52.18,4,4,0,0,0,.78.06,3.91,3.91,0,0,0,.8-.07,1.92,1.92,0,0,0,.56-.2.85.85,0,0,0,.32-.3A.73.73,0,0,0,66.92,181.32ZM65,177.37a1.55,1.55,0,0,0,.54-.08,1.06,1.06,0,0,0,.38-.23,1,1,0,0,0,.23-.36,1.32,1.32,0,0,0,.08-.46,1.09,1.09,0,0,0-.31-.81,1.57,1.57,0,0,0-1.84,0,1.08,1.08,0,0,0-.31.81,1.28,1.28,0,0,0,.08.45,1,1,0,0,0,.23.36,1,1,0,0,0,.38.24A1.56,1.56,0,0,0,65,177.37Z" transform="translate(-11.42 -18.25)" fill="#f37021"></path><path d="M71.21,175.28a3,3,0,0,1,.77-1A1.64,1.64,0,0,1,73,174a1.29,1.29,0,0,1,.77.21l-.11,1.25a.32.32,0,0,1-.1.17.27.27,0,0,1-.17.05l-.3,0a2.32,2.32,0,0,0-.39,0,1.4,1.4,0,0,0-.49.08,1.25,1.25,0,0,0-.39.23,1.6,1.6,0,0,0-.3.37,3.62,3.62,0,0,0-.25.49V181H69.63v-6.93h1a.4.4,0,0,1,.49.42Z" transform="translate(-11.42 -18.25)" fill="#f37021"></path><path d="M74.42,175A4.11,4.11,0,0,1,77.29,174a2.81,2.81,0,0,1,1.09.2,2.29,2.29,0,0,1,.81.55,2.37,2.37,0,0,1,.5.85,3.26,3.26,0,0,1,.17,1.08V181h-.76a.76.76,0,0,1-.36-.07.49.49,0,0,1-.2-.29l-.15-.5a5.84,5.84,0,0,1-.51.42,3,3,0,0,1-.52.3,2.81,2.81,0,0,1-.58.19,3.31,3.31,0,0,1-.68.06,2.68,2.68,0,0,1-.81-.12,1.79,1.79,0,0,1-.64-.35,1.58,1.58,0,0,1-.42-.59,2.08,2.08,0,0,1-.15-.82,1.63,1.63,0,0,1,.09-.52,1.54,1.54,0,0,1,.29-.5,2.39,2.39,0,0,1,.52-.45,3.34,3.34,0,0,1,.78-.36,6.75,6.75,0,0,1,1.08-.25,10.75,10.75,0,0,1,1.4-.12v-.41a1.52,1.52,0,0,0-.3-1,1.09,1.09,0,0,0-.86-.33,2,2,0,0,0-.67.09,2.77,2.77,0,0,0-.47.21l-.37.21a.72.72,0,0,1-.37.09.48.48,0,0,1-.3-.09.75.75,0,0,1-.2-.21Zm3.82,3a9.23,9.23,0,0,0-1.21.12,3.27,3.27,0,0,0-.79.23,1,1,0,0,0-.43.33.82.82,0,0,0,.13,1,1.13,1.13,0,0,0,.68.19,2,2,0,0,0,.89-.19,2.62,2.62,0,0,0,.73-.56Z" transform="translate(-11.42 -18.25)" fill="#f37021"></path><path d="M81.43,181v-6.93h1a.41.41,0,0,1,.43.3l.11.51a4,4,0,0,1,.38-.37,2.46,2.46,0,0,1,.43-.29,2.33,2.33,0,0,1,.49-.19,2.18,2.18,0,0,1,.57-.07,1.62,1.62,0,0,1,1.08.35,2.13,2.13,0,0,1,.63.94,2.12,2.12,0,0,1,.4-.59,2.22,2.22,0,0,1,.53-.4,2.43,2.43,0,0,1,.62-.23,3,3,0,0,1,.66-.07,2.79,2.79,0,0,1,1,.17,2,2,0,0,1,.75.51,2.26,2.26,0,0,1,.46.82,3.6,3.6,0,0,1,.16,1.11V181H89.49V176.6a1.48,1.48,0,0,0-.29-1,1.07,1.07,0,0,0-.85-.33,1.27,1.27,0,0,0-.48.09,1.13,1.13,0,0,0-.38.25,1.16,1.16,0,0,0-.26.42,1.61,1.61,0,0,0-.09.57V181H85.46V176.6a1.51,1.51,0,0,0-.28-1,1,1,0,0,0-.82-.32,1.35,1.35,0,0,0-.68.18,2.26,2.26,0,0,0-.58.49V181Z" transform="translate(-11.42 -18.25)" fill="#f37021"></path><path d="M97,175.43a.45.45,0,0,1-.14.15.37.37,0,0,1-.19,0,.6.6,0,0,1-.26-.07l-.32-.15a3,3,0,0,0-.42-.15,2,2,0,0,0-.55-.07,1.27,1.27,0,0,0-.77.21.65.65,0,0,0-.28.55.52.52,0,0,0,.15.38,1.33,1.33,0,0,0,.38.27,3.77,3.77,0,0,0,.54.21l.62.2q.31.11.62.25a2.16,2.16,0,0,1,.54.35,1.55,1.55,0,0,1,.53,1.23,2.34,2.34,0,0,1-.18.92,2,2,0,0,1-.53.73,2.5,2.5,0,0,1-.87.48,4,4,0,0,1-1.89.11,4.18,4.18,0,0,1-.65-.18,3.67,3.67,0,0,1-.58-.27,2.85,2.85,0,0,1-.47-.34l.38-.63a.56.56,0,0,1,.18-.18.5.5,0,0,1,.26-.06.54.54,0,0,1,.29.09l.32.19a2.78,2.78,0,0,0,.43.19,1.88,1.88,0,0,0,.62.09,1.6,1.6,0,0,0,.51-.07,1.06,1.06,0,0,0,.35-.19.69.69,0,0,0,.2-.27.81.81,0,0,0,.06-.31.56.56,0,0,0-.15-.4,1.28,1.28,0,0,0-.38-.27,3.72,3.72,0,0,0-.55-.21l-.63-.2a5.85,5.85,0,0,1-.63-.25,2.17,2.17,0,0,1-.55-.37,1.67,1.67,0,0,1-.38-.55,1.91,1.91,0,0,1-.15-.78,2,2,0,0,1,.17-.81,1.9,1.9,0,0,1,.5-.67,2.45,2.45,0,0,1,.82-.46,3.39,3.39,0,0,1,1.13-.17,3.45,3.45,0,0,1,1.3.24,2.93,2.93,0,0,1,1,.62Z" transform="translate(-11.42 -18.25)" fill="#f37021"></path><path d="M106.94,22.64a2.23,2.23,0,0,1,1.17.79,2.18,2.18,0,0,1,.38,1.3,2.44,2.44,0,0,1-.22,1,2.29,2.29,0,0,1-.61.8,2.84,2.84,0,0,1-1,.51,4.28,4.28,0,0,1-2.45,0,2.84,2.84,0,0,1-1-.51,2.29,2.29,0,0,1-.61-.8,2.44,2.44,0,0,1-.22-1,2.18,2.18,0,0,1,.38-1.3,2.23,2.23,0,0,1,1.17-.79,2,2,0,0,1-.95-.75A2.27,2.27,0,0,1,103,19.8a2.25,2.25,0,0,1,.56-.74,2.6,2.6,0,0,1,.86-.49,3.5,3.5,0,0,1,2.2,0,2.6,2.6,0,0,1,.86.49,2.25,2.25,0,0,1,.56.74,2.27,2.27,0,0,1-.11,2.09A2,2,0,0,1,106.94,22.64Zm-1.46,3.46a1.79,1.79,0,0,0,.64-.11,1.33,1.33,0,0,0,.46-.29,1.2,1.2,0,0,0,.29-.44,1.58,1.58,0,0,0,.1-.56,1.4,1.4,0,0,0-.4-1.08,1.81,1.81,0,0,0-2.18,0,1.4,1.4,0,0,0-.4,1.08,1.58,1.58,0,0,0,.1.56,1.2,1.2,0,0,0,.29.44,1.33,1.33,0,0,0,.46.29A1.79,1.79,0,0,0,105.48,26.1Zm0-6.59a1.44,1.44,0,0,0-.57.1,1.14,1.14,0,0,0-.4.27,1.08,1.08,0,0,0-.23.39,1.45,1.45,0,0,0-.07.47,2,2,0,0,0,.06.5,1.15,1.15,0,0,0,.21.43,1.07,1.07,0,0,0,.4.3,1.68,1.68,0,0,0,1.21,0,1.07,1.07,0,0,0,.4-.3,1.15,1.15,0,0,0,.21-.43,2,2,0,0,0,.06-.5,1.4,1.4,0,0,0-.08-.47,1.14,1.14,0,0,0-.23-.39,1.12,1.12,0,0,0-.4-.27A1.44,1.44,0,0,0,105.48,19.51Z" transform="translate(-11.42 -18.25)" fill="#f5c39f"></path><path d="M113.43,20.59a2.3,2.3,0,0,1-.17.89,2.11,2.11,0,0,1-.44.68,1.92,1.92,0,0,1-.64.43,2,2,0,0,1-.76.15,2.09,2.09,0,0,1-.8-.15,1.82,1.82,0,0,1-.63-.43,2,2,0,0,1-.42-.68,2.5,2.5,0,0,1-.15-.89,2.64,2.64,0,0,1,.15-.91A2,2,0,0,1,110,19a1.83,1.83,0,0,1,.63-.44,2.06,2.06,0,0,1,.8-.15,2.08,2.08,0,0,1,.8.15,1.87,1.87,0,0,1,.64.44,2,2,0,0,1,.42.69A2.64,2.64,0,0,1,113.43,20.59Zm2.89-1.87a.94.94,0,0,1,.18-.16.52.52,0,0,1,.3-.07h1.08l-6.44,8.45a.69.69,0,0,1-.19.16.52.52,0,0,1-.26.06h-1.1Zm-4,1.87a2.1,2.1,0,0,0-.07-.58,1.08,1.08,0,0,0-.19-.38.67.67,0,0,0-.28-.21.91.91,0,0,0-.34-.06.89.89,0,0,0-.34.06.64.64,0,0,0-.27.21,1.1,1.1,0,0,0-.18.38,2.14,2.14,0,0,0-.07.58,2,2,0,0,0,.07.56,1,1,0,0,0,.18.36.63.63,0,0,0,.27.2.93.93,0,0,0,.34.06,1,1,0,0,0,.34-.06.66.66,0,0,0,.28-.2,1,1,0,0,0,.19-.36A2,2,0,0,0,112.29,20.59Zm6,4.54a2.28,2.28,0,0,1-.17.89,2.09,2.09,0,0,1-.44.68,2,2,0,0,1-1.4.58,2.06,2.06,0,0,1-.8-.15,1.87,1.87,0,0,1-.63-.43,2,2,0,0,1-.42-.68,2.47,2.47,0,0,1-.15-.89,2.62,2.62,0,0,1,.15-.91,2,2,0,0,1,.42-.69,1.83,1.83,0,0,1,.63-.44,2.06,2.06,0,0,1,.8-.15,2.08,2.08,0,0,1,.8.15,1.83,1.83,0,0,1,.64.44,2,2,0,0,1,.42.69A2.59,2.59,0,0,1,118.33,25.12Zm-1.15,0a2.18,2.18,0,0,0-.07-.58,1,1,0,0,0-.18-.38.67.67,0,0,0-.28-.21.91.91,0,0,0-.34-.06A.89.89,0,0,0,116,24a.66.66,0,0,0-.27.21,1,1,0,0,0-.18.38,2.29,2.29,0,0,0-.06.58,2.16,2.16,0,0,0,.06.56,1,1,0,0,0,.18.37.64.64,0,0,0,.27.2.92.92,0,0,0,.34.06,1,1,0,0,0,.34-.06.66.66,0,0,0,.28-.2,1,1,0,0,0,.18-.37A2.07,2.07,0,0,0,117.19,25.12Z" transform="translate(-11.42 -18.25)" fill="#f5c39f"></path><path d="M124.3,19.77v2.57h3.25v1.29H124.3v3.53h-1.62V18.49h5.47v1.28Z" transform="translate(-11.42 -18.25)" fill="#f5c39f"></path><path d="M134.12,21v6.16h-.91a.35.35,0,0,1-.37-.27l-.1-.49a3.32,3.32,0,0,1-.83.62,2.31,2.31,0,0,1-1.07.24,2.18,2.18,0,0,1-.89-.17,1.79,1.79,0,0,1-.65-.48,2.11,2.11,0,0,1-.4-.74,3.11,3.11,0,0,1-.14-.95V21h1.48v3.91a1.32,1.32,0,0,0,.26.87,1,1,0,0,0,.78.31,1.56,1.56,0,0,0,.72-.17,2.49,2.49,0,0,0,.64-.47V21Z" transform="translate(-11.42 -18.25)" fill="#f5c39f"></path><path d="M137,21.76a4,4,0,0,1,.39-.34,2.45,2.45,0,0,1,.44-.27,2.42,2.42,0,0,1,.49-.17,2.49,2.49,0,0,1,.58-.06,2.21,2.21,0,0,1,.89.17,1.77,1.77,0,0,1,.65.48,2.11,2.11,0,0,1,.4.74,3.15,3.15,0,0,1,.13.95v3.92h-1.48V23.24a1.33,1.33,0,0,0-.26-.87,1,1,0,0,0-.79-.31,1.54,1.54,0,0,0-.72.17,2.59,2.59,0,0,0-.64.47v4.45h-1.48V21h.91a.36.36,0,0,1,.38.27Z" transform="translate(-11.42 -18.25)" fill="#f5c39f"></path><path d="M147.7,18.25v8.92h-.91a.35.35,0,0,1-.37-.27l-.13-.59a3.1,3.1,0,0,1-.85.69,2.31,2.31,0,0,1-1.12.26,2,2,0,0,1-1.65-.82,2.93,2.93,0,0,1-.47-1A5,5,0,0,1,142,24.1a4.2,4.2,0,0,1,.19-1.27,3.1,3.1,0,0,1,.53-1,2.51,2.51,0,0,1,.83-.68,2.41,2.41,0,0,1,1.09-.24,2.18,2.18,0,0,1,.88.16,2.28,2.28,0,0,1,.65.44V18.25Zm-1.48,4.33a1.46,1.46,0,0,0-.55-.43A1.61,1.61,0,0,0,145,22a1.42,1.42,0,0,0-.61.13,1.22,1.22,0,0,0-.46.38,1.84,1.84,0,0,0-.29.65,3.76,3.76,0,0,0-.1.93,4.14,4.14,0,0,0,.09.92,1.78,1.78,0,0,0,.25.61,1,1,0,0,0,.4.34,1.26,1.26,0,0,0,.52.11,1.52,1.52,0,0,0,.79-.19,2.34,2.34,0,0,0,.61-.55Z" transform="translate(-11.42 -18.25)" fill="#f5c39f"></path><path d="M150.56,22.07a2.65,2.65,0,0,1,.68-.87,1.46,1.46,0,0,1,.94-.31,1.14,1.14,0,0,1,.68.19l-.1,1.11a.29.29,0,0,1-.09.15.24.24,0,0,1-.15,0l-.27,0a2,2,0,0,0-.35,0,1.24,1.24,0,0,0-.44.07,1.08,1.08,0,0,0-.34.21,1.4,1.4,0,0,0-.27.33,3.16,3.16,0,0,0-.22.44v3.79h-1.48V21H150a.36.36,0,0,1,.44.37Z" transform="translate(-11.42 -18.25)" fill="#f5c39f"></path><path d="M153.42,21.86a3.65,3.65,0,0,1,2.56-1,2.49,2.49,0,0,1,1,.18,2,2,0,0,1,.72.49,2.11,2.11,0,0,1,.45.75,2.88,2.88,0,0,1,.15,1v3.89h-.67a.68.68,0,0,1-.32-.06.43.43,0,0,1-.18-.25l-.13-.44a5.66,5.66,0,0,1-.46.37A2.78,2.78,0,0,1,156,27a2.47,2.47,0,0,1-.51.17,3,3,0,0,1-.6.06,2.38,2.38,0,0,1-.72-.1,1.58,1.58,0,0,1-.57-.32,1.41,1.41,0,0,1-.37-.52,1.86,1.86,0,0,1-.13-.73,1.43,1.43,0,0,1,.08-.46,1.34,1.34,0,0,1,.25-.44,2.1,2.1,0,0,1,.46-.4,3,3,0,0,1,.69-.32,6,6,0,0,1,1-.22,9.75,9.75,0,0,1,1.25-.11v-.36a1.35,1.35,0,0,0-.26-.92,1,1,0,0,0-.76-.3,1.8,1.8,0,0,0-.6.08,2.52,2.52,0,0,0-.42.19l-.33.19a.65.65,0,0,1-.33.08.43.43,0,0,1-.26-.08.69.69,0,0,1-.17-.19Zm3.4,2.67a8,8,0,0,0-1.08.11,2.86,2.86,0,0,0-.7.21.91.91,0,0,0-.38.29.63.63,0,0,0-.11.37.65.65,0,0,0,.23.56,1,1,0,0,0,.6.17,1.76,1.76,0,0,0,.79-.17,2.36,2.36,0,0,0,.65-.5Z" transform="translate(-11.42 -18.25)" fill="#f5c39f"></path><path d="M161.39,19.21a.85.85,0,0,1-.08.36,1,1,0,0,1-.51.5.93.93,0,0,1-.37.08.9.9,0,0,1-.36-.08,1,1,0,0,1-.3-.2,1,1,0,0,1-.2-.29.88.88,0,0,1-.07-.36.93.93,0,0,1,.07-.37,1,1,0,0,1,.2-.3,1,1,0,0,1,.3-.2.9.9,0,0,1,.36-.08.93.93,0,0,1,.37.08,1,1,0,0,1,.3.2,1,1,0,0,1,.21.3A.9.9,0,0,1,161.39,19.21Zm-.2,1.79v6.16H159.7V21Z" transform="translate(-11.42 -18.25)" fill="#f5c39f"></path><path d="M166.45,22.21a.39.39,0,0,1-.13.13.32.32,0,0,1-.17,0,.53.53,0,0,1-.23-.06l-.29-.13a2.55,2.55,0,0,0-.37-.14,1.76,1.76,0,0,0-.49-.06,1.12,1.12,0,0,0-.69.19.58.58,0,0,0-.25.49A.46.46,0,0,0,164,23a1.17,1.17,0,0,0,.34.24,3.43,3.43,0,0,0,.48.18l.55.18q.28.1.55.22a1.93,1.93,0,0,1,.48.31,1.46,1.46,0,0,1,.34.45,1.44,1.44,0,0,1,.13.64,2.07,2.07,0,0,1-.16.82,1.76,1.76,0,0,1-.47.65,2.22,2.22,0,0,1-.77.43,3.63,3.63,0,0,1-1.68.1,3.65,3.65,0,0,1-.58-.16,3.13,3.13,0,0,1-.52-.24,2.47,2.47,0,0,1-.42-.3l.34-.56a.48.48,0,0,1,.16-.16.43.43,0,0,1,.23-.05.48.48,0,0,1,.26.08l.29.17a2.6,2.6,0,0,0,.38.17,1.69,1.69,0,0,0,.56.08,1.44,1.44,0,0,0,.45-.06,1,1,0,0,0,.31-.17.61.61,0,0,0,.18-.24.71.71,0,0,0,.06-.28.5.5,0,0,0-.13-.35,1.14,1.14,0,0,0-.34-.24,3.39,3.39,0,0,0-.49-.18l-.56-.18a5.28,5.28,0,0,1-.56-.23,1.9,1.9,0,0,1-.49-.33,1.49,1.49,0,0,1-.34-.49,1.7,1.7,0,0,1-.13-.7,1.76,1.76,0,0,1,.15-.72,1.7,1.7,0,0,1,.44-.6,2.19,2.19,0,0,1,.73-.41,3,3,0,0,1,1-.15,3.09,3.09,0,0,1,1.16.21,2.63,2.63,0,0,1,.87.55Z" transform="translate(-11.42 -18.25)" fill="#f5c39f"></path><path d="M169.71,19.21a.85.85,0,0,1-.08.36,1,1,0,0,1-.21.29,1,1,0,0,1-.3.2.93.93,0,0,1-.37.08.9.9,0,0,1-.36-.08,1,1,0,0,1-.3-.2,1,1,0,0,1-.2-.29.88.88,0,0,1-.08-.36.93.93,0,0,1,.08-.37,1,1,0,0,1,.2-.3,1,1,0,0,1,.3-.2.9.9,0,0,1,.36-.08.93.93,0,0,1,.37.08,1,1,0,0,1,.3.2,1,1,0,0,1,.21.3A.9.9,0,0,1,169.71,19.21Zm-.2,1.79v6.16H168V21Z" transform="translate(-11.42 -18.25)" fill="#f5c39f"></path><path d="M172.4,21.76a4,4,0,0,1,.39-.34,2.45,2.45,0,0,1,.93-.44,2.48,2.48,0,0,1,.58-.06,2.2,2.2,0,0,1,.89.17,1.77,1.77,0,0,1,.65.48,2.11,2.11,0,0,1,.4.74,3.14,3.14,0,0,1,.14.95v3.92H174.9V23.24a1.33,1.33,0,0,0-.26-.87,1,1,0,0,0-.79-.31,1.54,1.54,0,0,0-.72.17,2.57,2.57,0,0,0-.64.47v4.45H171V21h.91a.36.36,0,0,1,.38.27Z" transform="translate(-11.42 -18.25)" fill="#f5c39f"></path><path d="M183.19,21.22v.55q0,.26-.32.32l-.55.1a1.87,1.87,0,0,1,.13.7,1.8,1.8,0,0,1-.69,1.45,2.39,2.39,0,0,1-.77.4,3.12,3.12,0,0,1-1,.14l-.35,0-.33,0q-.29.17-.29.39a.29.29,0,0,0,.17.27,1.43,1.43,0,0,0,.45.12q.28,0,.64,0l.74,0a5.87,5.87,0,0,1,.74.1,2.14,2.14,0,0,1,.64.24,1.26,1.26,0,0,1,.45.44,1.36,1.36,0,0,1,.17.72,1.69,1.69,0,0,1-.2.79,2.14,2.14,0,0,1-.58.68,3,3,0,0,1-.94.48,4.05,4.05,0,0,1-1.26.18,4.83,4.83,0,0,1-1.21-.13,2.87,2.87,0,0,1-.86-.36,1.55,1.55,0,0,1-.51-.52,1.22,1.22,0,0,1-.17-.61,1,1,0,0,1,.26-.72,1.81,1.81,0,0,1,.72-.47,1,1,0,0,1-.39-.34,1,1,0,0,1-.14-.55.87.87,0,0,1,.05-.29,1.23,1.23,0,0,1,.15-.29,1.46,1.46,0,0,1,.25-.27,1.74,1.74,0,0,1,.35-.23,1.93,1.93,0,0,1-.74-.67,1.8,1.8,0,0,1-.27-1,1.83,1.83,0,0,1,.18-.82,1.85,1.85,0,0,1,.51-.63,2.32,2.32,0,0,1,.77-.4,3.3,3.3,0,0,1,1-.14,3.23,3.23,0,0,1,.74.08,2.52,2.52,0,0,1,.64.24Zm-1.48,6.22a.41.41,0,0,0-.11-.29.71.71,0,0,0-.29-.18,2.22,2.22,0,0,0-.44-.09l-.53,0-.58,0-.58,0a1.39,1.39,0,0,0-.4.32.66.66,0,0,0-.15.43.59.59,0,0,0,.08.3.67.67,0,0,0,.26.24,1.52,1.52,0,0,0,.46.16,4.1,4.1,0,0,0,1.4,0,1.71,1.71,0,0,0,.49-.17.74.74,0,0,0,.29-.26A.64.64,0,0,0,181.71,27.44ZM180,23.94a1.39,1.39,0,0,0,.48-.08.94.94,0,0,0,.34-.21.85.85,0,0,0,.2-.32,1.17,1.17,0,0,0,.07-.41,1,1,0,0,0-.27-.72,1.39,1.39,0,0,0-1.64,0,1,1,0,0,0-.27.72,1.15,1.15,0,0,0,.07.4.88.88,0,0,0,.2.32.92.92,0,0,0,.34.21A1.4,1.4,0,0,0,180,23.94Z" transform="translate(-11.42 -18.25)" fill="#f5c39f"></path><path d="M108.41,38.08h-2.33v2.47h-1.21V38.08h-2.32V37h2.32V34.52h1.21V37h2.33Z" transform="translate(-11.42 -18.25)" fill="#f5c39f"></path><path d="M111.4,36l.55-.09.51,0a3.28,3.28,0,0,1,1.21.2,2.47,2.47,0,0,1,.88.56,2.37,2.37,0,0,1,.53.84,3,3,0,0,1,.18,1,3.19,3.19,0,0,1-.24,1.26,2.84,2.84,0,0,1-.67,1,3.06,3.06,0,0,1-1,.63,3.65,3.65,0,0,1-1.29.22,3.42,3.42,0,0,1-.77-.08A3.81,3.81,0,0,1,110,41a3.71,3.71,0,0,1-.49-.39l.46-.63a.44.44,0,0,1,.38-.2.59.59,0,0,1,.31.1l.36.21a2.88,2.88,0,0,0,.47.21,2,2,0,0,0,.66.1,1.84,1.84,0,0,0,.72-.13,1.41,1.41,0,0,0,.52-.37,1.58,1.58,0,0,0,.31-.56,2.3,2.3,0,0,0,.11-.71,1.48,1.48,0,0,0-.41-1.11,1.68,1.68,0,0,0-1.21-.4,3.82,3.82,0,0,0-1.27.23L110,37.1l.72-4.21H115v.63a.69.69,0,0,1-.2.52.93.93,0,0,1-.67.2H111.7Z" transform="translate(-11.42 -18.25)" fill="#f5c39f"></path><path d="M120.39,35a2.3,2.3,0,0,1-.17.89,2.11,2.11,0,0,1-.44.68,1.92,1.92,0,0,1-.64.43,2,2,0,0,1-.76.15,2.09,2.09,0,0,1-.8-.15,1.82,1.82,0,0,1-.63-.43,2,2,0,0,1-.42-.68,2.5,2.5,0,0,1-.15-.89,2.64,2.64,0,0,1,.15-.91,2,2,0,0,1,.42-.69,1.83,1.83,0,0,1,.63-.44,2.06,2.06,0,0,1,.8-.15,2.08,2.08,0,0,1,.8.15,1.87,1.87,0,0,1,.64.44,2,2,0,0,1,.42.69A2.64,2.64,0,0,1,120.39,35Zm2.89-1.87a.94.94,0,0,1,.18-.16.52.52,0,0,1,.3-.07h1.08l-6.44,8.45a.69.69,0,0,1-.19.16.52.52,0,0,1-.26.06h-1.1Zm-4,1.87a2.1,2.1,0,0,0-.07-.58A1.08,1.08,0,0,0,119,34a.67.67,0,0,0-.28-.21.91.91,0,0,0-.34-.06.89.89,0,0,0-.34.06.64.64,0,0,0-.27.21,1.1,1.1,0,0,0-.18.38,2.14,2.14,0,0,0-.07.58,2,2,0,0,0,.07.56,1,1,0,0,0,.18.36.63.63,0,0,0,.27.2.93.93,0,0,0,.34.06,1,1,0,0,0,.34-.06.66.66,0,0,0,.28-.2,1,1,0,0,0,.19-.36A2,2,0,0,0,119.25,35Zm6,4.54a2.28,2.28,0,0,1-.17.89,2.09,2.09,0,0,1-.44.68,2,2,0,0,1-1.4.58,2.06,2.06,0,0,1-.8-.15,1.87,1.87,0,0,1-.63-.43,2,2,0,0,1-.42-.68,2.47,2.47,0,0,1-.15-.89,2.62,2.62,0,0,1,.15-.91,2,2,0,0,1,.42-.69,1.83,1.83,0,0,1,.63-.44,2.06,2.06,0,0,1,.8-.15,2.08,2.08,0,0,1,.8.15,1.83,1.83,0,0,1,.64.44,2,2,0,0,1,.42.69A2.59,2.59,0,0,1,125.29,39.52Zm-1.15,0a2.18,2.18,0,0,0-.07-.58,1,1,0,0,0-.18-.38.67.67,0,0,0-.28-.21.91.91,0,0,0-.34-.06.89.89,0,0,0-.34.06.66.66,0,0,0-.27.21,1,1,0,0,0-.18.38,2.29,2.29,0,0,0-.06.58,2.16,2.16,0,0,0,.06.56,1,1,0,0,0,.18.37.64.64,0,0,0,.27.2.92.92,0,0,0,.34.06,1,1,0,0,0,.34-.06.66.66,0,0,0,.28-.2,1,1,0,0,0,.18-.37A2.07,2.07,0,0,0,124.15,39.52Z" transform="translate(-11.42 -18.25)" fill="#f5c39f"></path><path d="M139,32.89v8.68h-1.42V36q0-.34,0-.73L135,40.16a.61.61,0,0,1-.57.35h-.23a.61.61,0,0,1-.57-.35L131,35.22q0,.2,0,.39c0,.13,0,.25,0,.35v5.6h-1.42V32.89H131l.14,0a.3.3,0,0,1,.11.08.65.65,0,0,1,.1.14L134,38c.07.13.13.26.19.4l.17.42c.06-.15.11-.29.17-.43s.12-.27.19-.4l2.56-4.81a.6.6,0,0,1,.1-.14.33.33,0,0,1,.12-.08l.14,0H139Z" transform="translate(-11.42 -18.25)" fill="#f5c39f"></path><path d="M140.44,36.27a3.65,3.65,0,0,1,2.56-1,2.49,2.49,0,0,1,1,.18,2,2,0,0,1,.72.49,2.11,2.11,0,0,1,.45.75,2.88,2.88,0,0,1,.15,1v3.89h-.67a.68.68,0,0,1-.32-.06.43.43,0,0,1-.18-.25L144,40.8a5.66,5.66,0,0,1-.46.37,2.78,2.78,0,0,1-.46.27,2.47,2.47,0,0,1-.51.17,3,3,0,0,1-.6.06,2.38,2.38,0,0,1-.72-.1,1.58,1.58,0,0,1-.57-.32,1.41,1.41,0,0,1-.37-.52,1.86,1.86,0,0,1-.13-.73,1.43,1.43,0,0,1,.08-.46,1.34,1.34,0,0,1,.25-.44,2.1,2.1,0,0,1,.46-.4,3,3,0,0,1,.69-.32,6,6,0,0,1,1-.22,9.75,9.75,0,0,1,1.25-.11v-.36a1.35,1.35,0,0,0-.26-.92,1,1,0,0,0-.76-.3,1.8,1.8,0,0,0-.6.08,2.52,2.52,0,0,0-.42.19l-.33.19a.65.65,0,0,1-.33.08.43.43,0,0,1-.26-.08.69.69,0,0,1-.17-.19Zm3.4,2.67a8,8,0,0,0-1.08.11,2.86,2.86,0,0,0-.7.21.91.91,0,0,0-.38.29.63.63,0,0,0-.11.37.65.65,0,0,0,.23.56,1,1,0,0,0,.6.17,1.76,1.76,0,0,0,.79-.17,2.36,2.36,0,0,0,.65-.5Z" transform="translate(-11.42 -18.25)" fill="#f5c39f"></path><path d="M148.06,36.16a4,4,0,0,1,.39-.34,2.45,2.45,0,0,1,.44-.27,2.42,2.42,0,0,1,.49-.17,2.49,2.49,0,0,1,.58-.06,2.21,2.21,0,0,1,.89.17,1.77,1.77,0,0,1,.65.48,2.11,2.11,0,0,1,.4.74,3.15,3.15,0,0,1,.13.95v3.92h-1.48V37.65a1.33,1.33,0,0,0-.26-.87,1,1,0,0,0-.79-.31,1.54,1.54,0,0,0-.72.17,2.59,2.59,0,0,0-.64.47v4.45h-1.48V35.41h.91a.36.36,0,0,1,.38.27Z" transform="translate(-11.42 -18.25)" fill="#f5c39f"></path><path d="M153.3,36.27a3.65,3.65,0,0,1,2.56-1,2.5,2.5,0,0,1,1,.18,2,2,0,0,1,.72.49,2.11,2.11,0,0,1,.45.75,2.9,2.9,0,0,1,.15,1v3.89h-.67a.67.67,0,0,1-.32-.06.43.43,0,0,1-.18-.25l-.13-.44a5.49,5.49,0,0,1-.46.37,2.71,2.71,0,0,1-.46.27,2.48,2.48,0,0,1-.51.17,3,3,0,0,1-.6.06,2.38,2.38,0,0,1-.72-.1,1.58,1.58,0,0,1-.57-.32,1.43,1.43,0,0,1-.37-.52A1.86,1.86,0,0,1,153,40a1.46,1.46,0,0,1,.08-.46,1.34,1.34,0,0,1,.25-.44,2.12,2.12,0,0,1,.46-.4,3,3,0,0,1,.69-.32,6,6,0,0,1,1-.22A9.75,9.75,0,0,1,156.7,38v-.36a1.35,1.35,0,0,0-.26-.92,1,1,0,0,0-.76-.3,1.79,1.79,0,0,0-.6.08,2.48,2.48,0,0,0-.42.19l-.33.19A.65.65,0,0,1,154,37a.43.43,0,0,1-.26-.08.68.68,0,0,1-.17-.19Zm3.4,2.67a8,8,0,0,0-1.08.11,2.87,2.87,0,0,0-.7.21.92.92,0,0,0-.38.29.63.63,0,0,0-.11.37.64.64,0,0,0,.23.56,1,1,0,0,0,.6.17,1.75,1.75,0,0,0,.79-.17,2.35,2.35,0,0,0,.65-.5Z" transform="translate(-11.42 -18.25)" fill="#f5c39f"></path><path d="M164.93,35.62v.55q0,.26-.32.32l-.55.1a1.87,1.87,0,0,1,.13.7,1.81,1.81,0,0,1-.69,1.45,2.37,2.37,0,0,1-.76.4,3.12,3.12,0,0,1-1,.14l-.35,0-.33,0q-.29.17-.29.39a.29.29,0,0,0,.17.27,1.42,1.42,0,0,0,.45.12q.28,0,.64,0l.74,0a5.83,5.83,0,0,1,.74.1,2.16,2.16,0,0,1,.64.24,1.26,1.26,0,0,1,.45.44,1.37,1.37,0,0,1,.17.72,1.69,1.69,0,0,1-.2.79,2.13,2.13,0,0,1-.58.68,3,3,0,0,1-.94.48,4.06,4.06,0,0,1-1.26.18,4.83,4.83,0,0,1-1.21-.13,2.87,2.87,0,0,1-.86-.36,1.55,1.55,0,0,1-.51-.52,1.23,1.23,0,0,1-.17-.61,1,1,0,0,1,.26-.72,1.8,1.8,0,0,1,.72-.47,1,1,0,0,1-.39-.34,1,1,0,0,1-.14-.55.87.87,0,0,1,.05-.29,1.23,1.23,0,0,1,.15-.29,1.4,1.4,0,0,1,.25-.27,1.73,1.73,0,0,1,.35-.23,1.94,1.94,0,0,1-.73-.67,1.79,1.79,0,0,1-.27-1,1.81,1.81,0,0,1,.69-1.45,2.3,2.3,0,0,1,.77-.4,3.3,3.3,0,0,1,1-.14,3.24,3.24,0,0,1,.74.08,2.55,2.55,0,0,1,.64.24Zm-1.48,6.22a.41.41,0,0,0-.11-.29.7.7,0,0,0-.29-.18,2.21,2.21,0,0,0-.43-.09l-.53,0-.58,0-.58,0a1.38,1.38,0,0,0-.4.32.66.66,0,0,0-.15.43.6.6,0,0,0,.08.3.68.68,0,0,0,.26.24,1.53,1.53,0,0,0,.46.16,4.1,4.1,0,0,0,1.4,0,1.71,1.71,0,0,0,.5-.17.76.76,0,0,0,.29-.26A.65.65,0,0,0,163.46,41.84Zm-1.67-3.5a1.39,1.39,0,0,0,.48-.08.93.93,0,0,0,.34-.21.84.84,0,0,0,.2-.32,1.17,1.17,0,0,0,.07-.41,1,1,0,0,0-.27-.72,1.39,1.39,0,0,0-1.64,0,1,1,0,0,0-.27.72,1.15,1.15,0,0,0,.07.4.88.88,0,0,0,.2.32.92.92,0,0,0,.34.21A1.4,1.4,0,0,0,161.78,38.34Z" transform="translate(-11.42 -18.25)" fill="#f5c39f"></path><path d="M166.9,38.67a2.9,2.9,0,0,0,.17.82,1.68,1.68,0,0,0,.35.57,1.37,1.37,0,0,0,.51.34,1.86,1.86,0,0,0,.66.11,2,2,0,0,0,.62-.08,2.94,2.94,0,0,0,.46-.19l.34-.19a.57.57,0,0,1,.29-.08.31.31,0,0,1,.28.14l.43.54a2.46,2.46,0,0,1-.55.48,3.1,3.1,0,0,1-.64.31,3.48,3.48,0,0,1-.68.17,4.82,4.82,0,0,1-.67,0,3.3,3.3,0,0,1-1.19-.21,2.67,2.67,0,0,1-1-.63,3,3,0,0,1-.64-1,4,4,0,0,1-.23-1.42,3.41,3.41,0,0,1,.2-1.18,2.85,2.85,0,0,1,.58-1,2.76,2.76,0,0,1,.93-.65,3.26,3.26,0,0,1,2.31-.05,2.34,2.34,0,0,1,.85.54,2.53,2.53,0,0,1,.56.88,3.27,3.27,0,0,1,.2,1.19,1,1,0,0,1-.07.45.3.3,0,0,1-.28.12Zm2.83-.89a1.79,1.79,0,0,0-.08-.54,1.32,1.32,0,0,0-.24-.45,1.14,1.14,0,0,0-.41-.3,1.41,1.41,0,0,0-.58-.11,1.37,1.37,0,0,0-1,.37,1.8,1.8,0,0,0-.47,1Z" transform="translate(-11.42 -18.25)" fill="#f5c39f"></path><path d="M172.17,41.56V35.41h.91a.36.36,0,0,1,.38.27l.1.46a3.47,3.47,0,0,1,.34-.33,2.12,2.12,0,0,1,.38-.26,2,2,0,0,1,.43-.17,1.92,1.92,0,0,1,.51-.06,1.43,1.43,0,0,1,1,.32,1.89,1.89,0,0,1,.56.84,1.87,1.87,0,0,1,.36-.53,2,2,0,0,1,.47-.36,2.19,2.19,0,0,1,.55-.2,2.65,2.65,0,0,1,.58-.07,2.45,2.45,0,0,1,.91.16,1.73,1.73,0,0,1,.67.46,2,2,0,0,1,.41.73,3.2,3.2,0,0,1,.14,1v3.92h-1.48V37.65a1.32,1.32,0,0,0-.26-.88,1,1,0,0,0-.76-.3,1.13,1.13,0,0,0-.42.08,1,1,0,0,0-.57.59,1.42,1.42,0,0,0-.08.51v3.92h-1.49V37.65a1.34,1.34,0,0,0-.25-.9.92.92,0,0,0-.73-.28,1.2,1.2,0,0,0-.6.16,2,2,0,0,0-.52.44v4.51Z" transform="translate(-11.42 -18.25)" fill="#f5c39f"></path><path d="M183.36,38.67a2.93,2.93,0,0,0,.17.82,1.67,1.67,0,0,0,.35.57,1.35,1.35,0,0,0,.51.34,1.86,1.86,0,0,0,.66.11,2.06,2.06,0,0,0,.62-.08,2.93,2.93,0,0,0,.46-.19l.34-.19a.56.56,0,0,1,.29-.08.31.31,0,0,1,.28.14l.43.54a2.46,2.46,0,0,1-.55.48,3.11,3.11,0,0,1-.64.31,3.52,3.52,0,0,1-.68.17,4.83,4.83,0,0,1-.67,0,3.3,3.3,0,0,1-1.19-.21,2.66,2.66,0,0,1-1-.63,3,3,0,0,1-.64-1,4,4,0,0,1-.23-1.42,3.39,3.39,0,0,1,.2-1.18,2.85,2.85,0,0,1,.58-1,2.76,2.76,0,0,1,.93-.65,3.26,3.26,0,0,1,2.31-.05,2.36,2.36,0,0,1,.85.54,2.53,2.53,0,0,1,.55.88,3.27,3.27,0,0,1,.2,1.19,1,1,0,0,1-.07.45.3.3,0,0,1-.28.12Zm2.83-.89a1.79,1.79,0,0,0-.08-.54,1.29,1.29,0,0,0-.24-.45,1.13,1.13,0,0,0-.41-.3,1.41,1.41,0,0,0-.58-.11,1.37,1.37,0,0,0-1,.37,1.79,1.79,0,0,0-.47,1Z" transform="translate(-11.42 -18.25)" fill="#f5c39f"></path><path d="M190,36.16a4,4,0,0,1,.39-.34,2.45,2.45,0,0,1,.93-.44,2.48,2.48,0,0,1,.58-.06,2.2,2.2,0,0,1,.89.17,1.77,1.77,0,0,1,.65.48,2.11,2.11,0,0,1,.4.74,3.14,3.14,0,0,1,.14.95v3.92h-1.48V37.65a1.33,1.33,0,0,0-.26-.87,1,1,0,0,0-.79-.31,1.54,1.54,0,0,0-.72.17,2.57,2.57,0,0,0-.64.47v4.45h-1.48V35.41h.91a.36.36,0,0,1,.38.27Z" transform="translate(-11.42 -18.25)" fill="#f5c39f"></path><path d="M197.36,41.66a1.62,1.62,0,0,1-1.23-.45A1.74,1.74,0,0,1,195.7,40V36.52h-.63a.29.29,0,0,1-.2-.08.3.3,0,0,1-.08-.23v-.59l1-.16.31-1.68a.32.32,0,0,1,.11-.19.34.34,0,0,1,.22-.07h.77v1.94h1.64v1.06h-1.64v3.34a.66.66,0,0,0,.14.45.49.49,0,0,0,.39.16.71.71,0,0,0,.23,0l.16-.07.12-.07a.2.2,0,0,1,.11,0,.16.16,0,0,1,.11,0l.09.1.44.72a2.22,2.22,0,0,1-.74.41A2.77,2.77,0,0,1,197.36,41.66Z" transform="translate(-11.42 -18.25)" fill="#f5c39f"></path></svg> 