<?xml version="1.0" encoding="utf-8"?>
<!-- Generator: Adobe Illustrator 24.0.3, SVG Export Plug-In . SVG Version: 6.00 Build 0)  -->
<svg version="1.1" id="Layer_1" xmlns="http://www.w3.org/2000/svg" xmlns:xlink="http://www.w3.org/1999/xlink" x="0px" y="0px"
	 viewBox="0 0 252 252" style="enable-background:new 0 0 252 252;" xml:space="preserve">
<style type="text/css">
	.st0{fill:#0067B0;}
</style>
<path class="st0" d="M153.3,69.9c-1.1-0.5-2.3-0.1-2.9,1c-0.5,1.1-0.1,2.3,1,2.9c19.6,9.7,31.8,29.4,31.8,51.2
	c0,24.8-15.8,46.6-39.4,54.3c-1.1,0.4-1.7,1.6-1.3,2.7c0.4,1.1,1.6,1.7,2.7,1.4c25.3-8.3,42.4-31.7,42.4-58.4
	C187.4,101.5,174.3,80.4,153.3,69.9L153.3,69.9z M106.8,178.8c-22.7-8.1-37.9-29.7-37.9-53.8c0-21.9,12.2-41.5,31.7-51.2
	c1.1-0.5,1.5-1.8,0.9-2.9c-0.5-1-1.8-1.5-2.9-1c-21.1,10.5-34.1,31.6-34.1,55c0,25.9,16.4,49.2,40.8,57.9c1.1,0.4,2.3-0.2,2.7-1.3
	C108.4,180.4,107.9,179.2,106.8,178.8z"/>
<path class="st0" d="M147.5,91.3c4.4,2.8,8.2,6.5,11.2,10.8c0.7,1,2,1.2,3,0.5c0,0,0,0,0,0c1-0.7,1.2-2,0.5-3
	c-3.3-4.8-7.6-8.8-12.4-12c-1-0.6-2.3-0.3-2.9,0.7C146.3,89.4,146.6,90.7,147.5,91.3z M144.5,165.2c15.6-7.2,25.7-23,25.7-40.2
	c0-1.2-1-2.1-2.1-2.1c-1.2,0-2.1,1-2.1,2.1c0,15.5-9.1,29.8-23.2,36.3c-1.1,0.5-1.5,1.8-1,2.9C142.3,165.2,143.5,165.6,144.5,165.2
	L144.5,165.2z M109.1,161.2c-14-6.6-23-20.8-23-36.2c0-13.2,6.5-25.5,17.4-33c1-0.6,1.3-2,0.6-3s-2-1.3-3-0.6c0,0-0.1,0-0.1,0.1
	c-12,8.3-19.2,21.9-19.2,36.5c0,17.1,10,32.8,25.5,40.1c1.1,0.5,2.3,0,2.8-1c0,0,0,0,0,0C110.6,163,110.1,161.7,109.1,161.2
	C109.1,161.2,109.1,161.2,109.1,161.2z M142.8,88.3c3.1-13.9-2-48.3-2.3-49.8c-0.2-1.2-1.3-2-2.4-1.8c-1.2,0.2-2,1.3-1.8,2.4
	c0.1,0.3,5.3,35.2,2.3,48.2c-0.9,4-2.4,7.1-3.9,10c-2.4,4.8-4.9,9.8-4.6,18.4l0.2,6.6c0.8,26.1,1.7,55.7,2.5,63
	c0.8,7.5,0.2,20-3.7,24.3c-0.9,1-1.8,1.4-3,1.4h-0.3c-1.2,0-2.1-0.5-3-1.4c-3.9-4.3-4.5-16.8-3.7-24.3c0.8-7.4,1.7-36.9,2.5-63
	l0.2-6.6c0.3-8.6-2.2-13.6-4.6-18.4c-1.5-3-3-6-3.9-10c-2.9-13.1,2.3-47.9,2.3-48.2c0.2-1.2-0.6-2.3-1.8-2.4s-2.3,0.6-2.4,1.8
	c-0.2,1.5-5.4,36-2.3,49.8c1,4.5,2.6,7.8,4.2,11c2.3,4.7,4.4,8.8,4.1,16.3l-0.2,6.6c-0.8,26-1.7,55.5-2.5,62.7
	c0,0.2-2,20.1,4.8,27.7c1.7,1.9,3.8,2.8,6.2,2.8h0.3c2.4,0,4.5-1,6.2-2.8c6.8-7.6,4.8-27.5,4.8-27.7c-0.8-7.2-1.7-36.7-2.5-62.7
	l-0.2-6.6c-0.2-7.5,1.8-11.6,4.1-16.3C140.1,96.1,141.8,92.8,142.8,88.3L142.8,88.3z"/>
<path class="st0" d="M131.8,82.1L131.8,82.1c1.3,0,2.2-1,2.1-2.2c0,0,0,0,0,0l-1.4-41.1c0-1.2-1-2.1-2.2-2.1c-1.2,0-2.1,1-2.1,2.2
	l1.4,41.1C129.7,81.1,130.7,82.1,131.8,82.1L131.8,82.1z M120.5,82.1L120.5,82.1c1.2,0,2.2-0.9,2.2-2.1l1.7-41.1
	c0.1-1.2-0.9-2.2-2-2.2c0,0,0,0,0,0c-1.2,0-2.2,0.9-2.2,2.1l-1.7,41.1C118.4,81,119.3,82,120.5,82.1
	C120.5,82.1,120.5,82.1,120.5,82.1z"/>
</svg>
