<?xml version="1.0" encoding="utf-8"?>
<!-- Generator: Adobe Illustrator 24.0.3, SVG Export Plug-In . SVG Version: 6.00 Build 0)  -->
<svg version="1.1" id="Layer_1" xmlns="http://www.w3.org/2000/svg" xmlns:xlink="http://www.w3.org/1999/xlink" x="0px" y="0px"
	 viewBox="0 0 252 252" style="enable-background:new 0 0 252 252;" xml:space="preserve">
<style type="text/css">
	.st0{fill:#0067B0;}
</style>
<path class="st0" d="M120.5,118.3l1.7,9.3c0.2,1.2,1.3,1.9,2.5,1.7s1.9-1.3,1.7-2.5l-2-11c-0.2-1-1.1-1.8-2.2-1.8
	c-0.1,0-10.5,0.2-21-4.1c-13.3-5.5-20.7-15.5-22-29.6c4-0.4,13.7-1.1,23.2,1.3c12.1,3.1,20.6,16.4,21.5,21.4
	c0.2,1.2,1.4,1.9,2.5,1.7c1.1-0.2,1.8-1.3,1.7-2.4c0-0.2-2.8-20.2,8.7-31c4.8-4.6,12.3-5.3,20.2-6.1c10.2-1,21.8-2.2,30.4-11.8
	c1.6,3.8,3.8,11.8,2,24.7c-2.6,19.9-20.6,32.1-45.8,31c-0.9,0-1.8,0.5-2.1,1.4c-0.1,0.4-3.7,10.5-3.9,16.5c0,1.2,0.9,2.2,2.1,2.2
	c0,0,0,0,0,0c1.2,0,2.2-0.9,2.2-2.1c0.2-4.1,2.2-10.8,3.2-13.8c26.3,0.5,45.7-13.3,48.6-34.8c2.7-20.6-3.9-30-4.2-30.4
	c-0.4-0.6-1-0.9-1.7-0.9c-0.7,0-1.3,0.3-1.7,0.9c-7.7,10.5-18.7,11.6-29.5,12.7c-8.7,0.9-16.8,1.7-22.7,7.3
	c-7.5,7.1-9.7,17.2-10.2,24.7c-4.4-6.3-11.5-13.2-20.2-15.4c-13.2-3.4-26.3-1.2-26.9-1.1c-1.1,0.2-1.8,1.1-1.8,2.2
	C76.6,114.3,111.9,118,120.5,118.3L120.5,118.3z M214.4,135c-1.4-3.3-5.3-5.6-9.5-5.4l-0.1,0c-6.6,0.3-9.7,0.9-24.8,12.6l-14.6,10.1
	c0-0.4,0.1-0.9,0.1-1.2c0-8.9-7-12.1-10.8-12.6c-0.1,0-0.2,0-0.3,0H129c-8.1,0-11.7-0.7-15.8-1.6c-3.8-0.8-8-1.7-16.3-2.2
	c-16.6-1.1-26.7,9.7-28.8,12.1l-29.7,12c-0.9,0.3-1.4,1.2-1.3,2.1c2.5,34.5,35,43.4,35.4,43.5c0.5,0.1,1.1,0.1,1.6-0.2l20.9-12
	c6.6,0.9,31.9,4.1,42.7,4.1c0.9,0,1.7,0,2.3-0.1c10.1-0.7,17.1-6.1,26.8-13.6l1.7-1.3c10.9-8.4,34.6-28.3,42.2-35.5
	C215.9,141.1,215.3,137,214.4,135L214.4,135z M72.7,200.1c-4.8-1.5-28.4-10.3-31.2-37.9l25.7-10.4c0.2,6.9,3,22.8,23.1,38.2
	L72.7,200.1z M207.7,142.9c-7.5,7.1-31,26.8-41.8,35.2l-1.7,1.3c-9.4,7.3-15.7,12.1-24.5,12.7c-9,0.6-40.8-3.5-45.3-4.1
	c-23.7-17.3-23.3-35-23-38.4c1.9-2.1,10.9-11.4,25.2-10.5c7.9,0.5,12.1,1.4,15.7,2.1c4.4,0.9,8.2,1.7,16.7,1.7h25.2
	c1.1,0.2,6.9,1.5,6.9,8.3c0,2,0,8.1-11.2,8.1h-32.2c-1.2,0-2.1,1-2.1,2.1s1,2.1,2.1,2.1h32.2c6,0,9.8-1.5,12-3.7
	c0.2-0.1,0.4-0.1,0.5-0.3l20-13.8l0.1-0.1c14.9-11.5,17.1-11.6,22.4-11.8l0.1,0c2.4-0.1,4.7,1.1,5.4,2.8
	C211.2,138.4,210.2,140.6,207.7,142.9L207.7,142.9z"/>
</svg>
