<?xml version="1.0" encoding="utf-8"?>
<!-- Generator: Adobe Illustrator 24.0.3, SVG Export Plug-In . SVG Version: 6.00 Build 0)  -->
<svg version="1.1" id="Layer_1" xmlns="http://www.w3.org/2000/svg" xmlns:xlink="http://www.w3.org/1999/xlink" x="0px" y="0px"
	 viewBox="0 0 252 252" style="enable-background:new 0 0 252 252;" xml:space="preserve">
<style type="text/css">
	.st0{fill:#0067B0;}
</style>
<path class="st0" d="M174.8,140.4c1.2,0,2.1-1,2.1-2.1v-19c0-13.6-12.5-18.6-19.1-19.3c-0.8-0.1-1.6,0.3-2.1,1c0,0.1-5,8-21.2,8
	c-16.2,0-22.9-7.7-23-7.8c-0.4-0.5-1-0.8-1.7-0.8c-5.5,0-9.9,1.7-13.1,5c-5.5,5.7-5.4,14.1-5.4,14.4V135c0,1.2,1,2.1,2.1,2.1
	c1.2,0,2.1-1,2.1-2.1v-15.4c0-0.1-0.1-6.9,4.2-11.3c2.2-2.3,5.3-3.5,9.2-3.7c2.3,2.3,10.1,8.6,25.5,8.6c14.8,0,21.7-6.1,24-8.8
	c1.4,0.3,4,1,6.6,2.4c5,2.8,7.5,7,7.5,12.4v19C172.7,139.4,173.6,140.4,174.8,140.4L174.8,140.4z"/>
<path class="st0" d="M88.6,96.8c0.3,0,8-0.1,13.3-5.9c1.8-2,3.1-4.4,3.8-7.2c5.3,10.1,15.9,17.1,28.1,17.1
	c12.2,0,22.7-6.9,28.1-16.9c0.8,2.7,2,5.1,3.8,7.1c5.3,5.8,12.9,5.9,13.3,5.9c1,0,1.9-0.7,2.1-1.7c1.2-6.4,0.3-11.7-2.9-15.9
	c-3.8-5-9.7-6.8-12.7-7.5c0.1-0.9,0.1-1.8,0.1-2.7c0-17.5-14.3-31.8-31.8-31.8S102.1,51.4,102.1,69c0,0.9,0,1.8,0.1,2.7
	c-3,0.6-9,2.4-12.8,7.5c-3.1,4.1-4.1,9.5-2.9,15.9C86.7,96,87.6,96.8,88.6,96.8z M174.8,81.8c2.1,2.7,2.9,6.3,2.4,10.5
	c-2.1-0.4-5.6-1.4-8.3-4.3c-2.5-2.8-3.7-6.8-3.6-11.9C167.9,76.7,172.2,78.2,174.8,81.8z M133.9,96.4c-14.6,0-26.5-11.4-27.4-25.8
	c5.3-1.3,20.6-6.4,27.2-22.7c2.8,7.1,10,16.8,27.7,22.5C160.5,85,148.5,96.4,133.9,96.4z M161.2,66c-20.1-6.9-24.2-19.3-25-24.4
	C149.3,42.7,159.8,53,161.2,66z M131.2,41.6c-4.3,17.5-18.7,23.1-24.7,24.7C107.8,53.3,118.2,42.9,131.2,41.6z M92.8,81.8
	c2.7-3.6,6.9-5.1,9.5-5.7c0.2,5.1-1,9.1-3.6,11.9c-2.6,2.9-6.2,4-8.3,4.3C90,88,90.8,84.5,92.8,81.8z M201.9,139.7
	c-7.9-0.9-20.4,8.7-32.5,17.9c-1.6,1.2-3.2,2.5-4.8,3.7c0.1-0.8,0.1-1.5,0.1-2.4c0-8.8-11.3-10.9-11.8-11c-0.1,0-0.2,0-0.4,0h-26
	c-5.8,0-8.6-0.8-11.9-1.7c-3.7-1-7.9-2.2-16.7-2.3l-0.4,0c-18.6,0-27.6,9.9-29.5,12.4l-28,12c-0.7,0.3-1.2,1-1.3,1.8
	c0,0.3-0.7,7.8,3.3,17.1c3.7,8.5,12.3,20.1,32,27.4c0.6,0.2,1.2,0.2,1.8-0.1c0.1,0,8.9-4.9,14.2-7.7c0.9-0.5,1.7-0.9,2.4-1.3
	c3.3-1.9,4.6-2.6,12-1.3c9.7,1.7,25,2.6,35.2,2.6c9.5,0,12.5-2.4,21.3-9.6c1.3-1,2.7-2.2,4.3-3.5c2.4-1.9,5.4-4.3,8.6-6.7
	c13.3-10.3,31.6-24.3,38.9-34.2c0.2-0.3,0.4-0.7,0.4-1.1C213.2,151.7,214.1,141.1,201.9,139.7z M171.3,183.7
	c-3.2,2.5-6.2,4.8-8.7,6.8c-1.6,1.3-3,2.4-4.3,3.5c-8.8,7.1-10.6,8.6-18.6,8.6c-10,0-25-0.9-34.4-2.5c-8.6-1.5-10.7-0.5-14.9,1.8
	c-0.7,0.4-1.4,0.8-2.2,1.2c-4.4,2.3-11.1,6-13.4,7.2c-30-11.6-31.8-33-31.7-38.4l27.3-11.7c0.4-0.2,0.7-0.4,0.9-0.7
	c0,0,2-2.8,6.3-5.6c5.7-3.7,12.6-5.5,20.4-5.5c8.3,0.1,12,1.1,15.6,2.1c3.4,1,6.7,1.9,13,1.9h25.8c1.1,0.2,8.1,1.9,8.1,6.7
	c0,3.3-1,5.8-2.8,7.3c-0.5,0.3-0.9,0.6-1.3,0.8l0,0c-1.1,0.5-2.4,0.8-4,0.8h-35.7c-1.2,0-2.1,1-2.1,2.1c0,1.2,1,2.1,2.1,2.1h35.7
	c3.3,0,6-0.9,8-2.6c3.4-2.3,7.4-5.4,11.7-8.6c10.3-7.9,23.2-17.8,29.4-17.1c6.8,0.8,7.5,5.2,7.5,6.8
	C201.8,160.2,184.2,173.8,171.3,183.7L171.3,183.7z"/>
</svg>
