<?xml version="1.0" encoding="utf-8"?>
<!-- Generator: Adobe Illustrator 24.0.3, SVG Export Plug-In . SVG Version: 6.00 Build 0)  -->
<svg version="1.1" id="Layer_1" xmlns="http://www.w3.org/2000/svg" xmlns:xlink="http://www.w3.org/1999/xlink" x="0px" y="0px"
	 viewBox="0 0 252 252" style="enable-background:new 0 0 252 252;" xml:space="preserve">
<style type="text/css">
	.st0{fill:#0067B0;}
</style>
<path class="st0" d="M210.5,63l-76.6-26c-0.8-0.3-1.7-0.1-2.2,0.5l-91.1,94.8c-0.4,0.4-0.6,0.9-0.6,1.5l0,50.2c0,0.9,0.6,1.7,1.5,2
	L129,215c0.8,0.3,1.8,0,2.3-0.7l80.1-96.7c0.3-0.4,0.5-0.9,0.5-1.4V65.1C212,64.1,211.4,63.3,210.5,63z M207.7,115.5L129,210.4
	l-84.7-27.9l0-47.8l89.6-93.2l73.9,25L207.7,115.5z"/>
<path class="st0" d="M98.5,138.2c0.5,0,0.9,0,1.4,0c4.8,0,9.2-1.5,11.9-4.1c1.9-1.8,3-4.1,3-6.5c0-6.3-7-11.7-16-12.2
	c-5.3-0.3-10.3,1.2-13.3,4c-1.9,1.8-3,4.1-3,6.5C82.5,132.3,89.5,137.7,98.5,138.2z M88.4,122.6c2-1.8,5.3-2.9,9-2.9
	c0.4,0,0.7,0,1.1,0c6.5,0.4,12,4,12,7.9c0,1.2-0.5,2.4-1.6,3.4c-2.2,2-6,3.1-10.1,2.9c-6.5-0.4-12-4-12-7.9
	C86.8,124.8,87.3,123.6,88.4,122.6z M125.6,110c0.5,0,0.9,0,1.4,0c4.8,0,9.2-1.5,11.9-4.1c1.9-1.8,3-4.1,3-6.5c0-6.3-7-11.7-16-12.2
	c-5.3-0.3-10.3,1.2-13.3,4c-1.9,1.8-3,4.1-3,6.5C109.5,104.1,116.6,109.4,125.6,110z M115.4,94.4c2-1.8,5.3-2.9,9-2.9
	c0.4,0,0.7,0,1.1,0c6.5,0.4,12,4,12,7.9c0,1.2-0.5,2.4-1.6,3.4c-2.1,2-6,3.1-10.1,2.9c-6.5-0.4-12-4-12-7.9
	C113.8,96.5,114.4,95.4,115.4,94.4z M150.9,83.4c0.5,0,0.9,0,1.4,0c4.8,0,9.2-1.5,11.9-4.1c1.9-1.8,3-4.1,3-6.5
	c0-6.3-7-11.7-16-12.2c-5.3-0.3-10.3,1.2-13.3,4c-1.9,1.8-3,4.1-3,6.5C134.9,77.5,141.9,82.8,150.9,83.4z M140.8,67.8
	c2-1.8,5.3-2.9,9-2.9c0.4,0,0.7,0,1.1,0c6.5,0.4,12,4,12,7.9c0,1.2-0.5,2.4-1.6,3.4c-2.1,2-6,3.1-10.1,2.9c-6.5-0.4-12-4-12-7.9
	C139.1,69.9,139.7,68.8,140.8,67.8z"/>
<path class="st0" d="M60.9,139.5c-1.1-0.4-2.3,0.2-2.7,1.4s0.2,2.3,1.4,2.7l66.2,22V192c0,1.2,1,2.1,2.1,2.1c1.2,0,2.1-1,2.1-2.1
	v-27.3l67.9-79.3c0.8-0.9,0.7-2.3-0.2-3s-2.3-0.7-3,0.2l-67.5,78.8L60.9,139.5z"/>
</svg>
