<?xml version="1.0" encoding="utf-8"?>
<!-- Generator: Adobe Illustrator 24.0.3, SVG Export Plug-In . SVG Version: 6.00 Build 0)  -->
<svg version="1.1" id="Layer_1" xmlns="http://www.w3.org/2000/svg" xmlns:xlink="http://www.w3.org/1999/xlink" x="0px" y="0px"
	 viewBox="0 0 252 252" style="enable-background:new 0 0 252 252;" xml:space="preserve">
<style type="text/css">
	.st0{fill:#0067B0;}
</style>
<path class="st0" d="M202.5,78.2c0-9.2-4.4-17.5-12.7-24c-4.3-3.4-8.5-5.4-10.8-6.4c-0.1-5.9-4.9-10.6-10.8-10.6
	c-6,0-10.8,4.9-10.8,10.8s4.9,10.8,10.8,10.8c4.5,0,8.4-2.8,10-6.7c5.8,2.7,20.1,10.9,20.1,26.1c0,9.7-3.9,26.8-12.5,41.4
	c-6.9,11.8-19.2,25.8-38.4,25.8c-35.9,0-51.1-48.2-51.1-67.4c0-8.1,3.7-15.1,11-20.7c3.7-2.8,7.4-4.6,9.5-5.5c1.6,4.1,5.5,7,10.1,7
	c6,0,10.8-4.9,10.8-10.8s-4.9-10.8-10.8-10.8c-5.8,0-10.5,4.6-10.8,10.3c-5.1,2-24.1,10.7-24.1,30.5c0,10.8,4.1,28.6,13.2,43.9
	c7.3,12.3,20.1,26.9,40.3,27.8v42.1c0,18.3-17.3,18.8-19.3,18.8c-15,0-17.5-13.9-17.7-15.5v-19.5c0-13.9-8.2-17.5-12.2-18.4
	c0.1-0.7,0.1-1.4,0.1-2.1c0-12.9-10.5-23.3-23.3-23.3c-12.9,0-23.3,10.5-23.3,23.3s10.5,23.3,23.3,23.3c10.7,0,19.7-7.2,22.5-17
	c2.8,0.6,8.7,3.2,8.7,14.2v19.7l0,0.3c0,0.2,2.7,19.3,22,19.3c18.6,0,23.6-14.5,23.6-23.1v-42.1C186.7,147.6,202.5,98.1,202.5,78.2
	L202.5,78.2z M168.1,54.5c-3.6,0-6.5-2.9-6.5-6.5c0-3.6,2.9-6.5,6.5-6.5s6.5,2.9,6.5,6.5C174.6,51.6,171.7,54.5,168.1,54.5z
	 M126.9,41.4c3.6,0,6.5,2.9,6.5,6.5c0,3.6-2.9,6.5-6.5,6.5c-3.6,0-6.5-2.9-6.5-6.5C120.3,44.4,123.2,41.4,126.9,41.4z M72.9,174.1
	c-10.5,0-19.1-8.5-19.1-19.1S62.4,136,72.9,136c10.5,0,19.1,8.5,19.1,19.1S83.4,174.1,72.9,174.1z"/>
<path class="st0" d="M72.9,144.9c-5.6,0-10.2,4.6-10.2,10.2s4.6,10.2,10.2,10.2s10.2-4.6,10.2-10.2S78.5,144.9,72.9,144.9z
	 M72.9,161c-3.3,0-5.9-2.7-5.9-5.9s2.7-5.9,5.9-5.9s5.9,2.7,5.9,5.9S76.1,161,72.9,161z"/>
</svg>
