<?xml version="1.0" encoding="utf-8"?>
<!-- Generator: Adobe Illustrator 24.0.3, SVG Export Plug-In . SVG Version: 6.00 Build 0)  -->
<svg version="1.1" id="Layer_1" xmlns="http://www.w3.org/2000/svg" xmlns:xlink="http://www.w3.org/1999/xlink" x="0px" y="0px"
	 viewBox="0 0 252 252" style="enable-background:new 0 0 252 252;" xml:space="preserve">
<style type="text/css">
	.st0{fill:#0067B0;}
</style>
<path class="st0" d="M215.1,78.4l-41.4-41.4c-0.8-0.8-2.2-0.8-3,0s-0.8,2.2,0,3l0,0l19.2,19.2c0,0-0.1,0-0.1,0.1l-21.9,22
	l-16.5-16.5c-0.4-0.4-0.9-0.6-1.5-0.6h0c-0.6,0-1.1,0.2-1.5,0.6l-63.9,64.6c-1.3,1.1-12.7,10.8-13.4,23.2c-0.3,6.3,2.1,12,7.3,17.2
	c0.2,0.2,0.3,0.3,0.5,0.5L36.9,212c-0.8,0.8-0.8,2.2,0,3c0.8,0.8,2.2,0.8,3,0l0,0l42-42c5.2,4.1,10.7,6.1,16.4,6.1
	c0.2,0,0.4,0,0.6,0c11.5-0.3,19.7-8.8,20.4-9.6l66.9-66.9c0.8-0.8,0.8-2.2,0-3c0,0,0,0,0,0l-15.4-15.4l21.9-22c0,0,0-0.1,0.1-0.1
	L212,81.4c0.4,0.4,1,0.6,1.5,0.6s1.1-0.2,1.5-0.6C215.9,80.6,215.9,79.2,215.1,78.4C215.1,78.4,215.1,78.4,215.1,78.4L215.1,78.4z
	 M164.2,118.7c-0.1-0.1-0.1-0.1-0.2-0.2l-15-15c-0.8-0.8-2.2-0.8-3,0c-0.8,0.8-0.8,2.2,0,3l0,0l15,15c0.1,0.1,0.1,0.1,0.2,0.2
	l-7.8,7.8c-0.1-0.1-0.1-0.1-0.2-0.2l-15-15c-0.8-0.8-2.2-0.8-3,0c-0.8,0.8-0.8,2.2,0,3l15,15c0.1,0.1,0.1,0.1,0.2,0.2l-7.8,7.8
	c-0.1-0.1-0.1-0.1-0.2-0.2l-15-15c-0.8-0.8-2.2-0.8-3,0c-0.8,0.8-0.8,2.2,0,3l15,15c0.1,0.1,0.1,0.1,0.2,0.2l-7.8,7.8
	c-0.1-0.1-0.1-0.1-0.2-0.2l-15-15c-0.8-0.8-2.2-0.8-3,0c-0.8,0.8-0.8,2.2,0,3l0,0l15,15c0.1,0.1,0.1,0.1,0.2,0.2l-7.8,7.8
	c-0.1-0.1-0.1-0.1-0.2-0.2l-15-15c-0.8-0.8-2.2-0.8-3,0c-0.8,0.8-0.8,2.2,0,3l15,15c0.1,0.1,0.1,0.1,0.2,0.2l-1.6,1.6
	c0,0,0,0.1-0.1,0.1c-0.1,0.1-7.4,8-17.4,8.2c-6.1,0.2-12-2.6-17.6-8.2c-4.3-4.3-6.3-8.9-6-13.9c0.6-10.9,11.8-20.1,11.9-20.2
	c0.1-0.1,0.1-0.1,0.2-0.2l62.5-63.1l31.9,31.9L164.2,118.7z"/>
</svg>
