<?xml version="1.0" encoding="utf-8"?>
<!-- Generator: Adobe Illustrator 24.0.3, SVG Export Plug-In . SVG Version: 6.00 Build 0)  -->
<svg version="1.1" id="Layer_1" xmlns="http://www.w3.org/2000/svg" xmlns:xlink="http://www.w3.org/1999/xlink" x="0px" y="0px"
	 viewBox="0 0 252 252" style="enable-background:new 0 0 252 252;" xml:space="preserve">
<style type="text/css">
	.st0{fill:#0067B0;}
</style>
<path class="st0" d="M99.7,71.6c1.2,0,2.1-1,2.1-2.1v-8.9c0.2-1,1.8-7.4,9.8-7.4h29.5c0,0,0.1,0,0.1,0c0,0,4.5-0.2,7.1,2.3
	c1.2,1.2,1.8,2.8,1.8,4.9v9.1c0,1.2,1,2.1,2.1,2.1c1.2,0,2.1-1,2.1-2.1v-9.1c0-3.3-1.1-6-3.2-8.1c-3.8-3.6-9.5-3.5-10.2-3.4h-29.4
	c-9.9,0-13.5,7.3-14.1,11.2c0,0.1,0,0.2,0,0.3v9.1C97.5,70.6,98.5,71.6,99.7,71.6C99.7,71.6,99.7,71.6,99.7,71.6L99.7,71.6z
	 M196,79.2H56c-10,0-18.1,8.1-18.1,18.1v87.8c0,10,8.1,18.1,18.1,18.1H196c10,0,18.1-8.1,18.1-18.1V97.3
	C214,87.3,205.9,79.2,196,79.2z M209.7,185.1c0,7.6-6.2,13.8-13.8,13.8H56c-7.6,0-13.8-6.2-13.8-13.8V97.3c0-7.6,6.2-13.8,13.8-13.8
	H196c7.6,0,13.8,6.2,13.8,13.8V185.1z"/>
<path class="st0" d="M190.5,95.5h-37.8c-1.2,0-2.1,1-2.1,2.1c0,1.2,1,2.1,2.1,2.1h37.8c0.2,0,0.4,0.2,0.4,0.4l0,79.8
	c0,1.2,1,2.1,2.1,2.1c1.2,0,2.1-1,2.1-2.1l0-79.8C195.2,97.6,193.1,95.5,190.5,95.5z"/>
</svg>
