<?xml version="1.0" encoding="utf-8"?>
<!-- Generator: Adobe Illustrator 19.2.0, SVG Export Plug-In . SVG Version: 6.00 Build 0)  -->
<svg version="1.1" id="Layer_1" xmlns="http://www.w3.org/2000/svg" xmlns:xlink="http://www.w3.org/1999/xlink" x="0px" y="0px"
	 viewBox="0 0 290 21" style="enable-background:new 0 0 290 21;" xml:space="preserve">
<path d="M6.2,0.2c1.3,0,2.4,0.2,3.3,0.5c1,0.3,1.7,0.7,2.3,1.2c0.7,0.5,1,1,1.4,1.8c0.3,0.8,0.4,1.6,0.4,2.5c0,1,0,1.8-0.4,2.6
	c-0.3,0.6-0.8,1.3-1.4,1.8c-0.6,0.6-1.4,1-2.3,1.3c-1,0.4-2,0.6-3.3,0.6H3.6v6.7H0V0.3h6.2V0.2z M6.2,9.8c0.7,0,1.2,0,1.7-0.2
	c0.4-0.2,0.8-0.4,1-0.7c0.5-0.4,0.7-0.8,0.8-1.2L10,6.2c0-0.5,0-1-0.2-1.4c0-0.5-0.3-0.8-0.7-1S8.5,3.1,8.1,3C7.3,3,7,3,6,3H3.6v6.8
	H6.2z M38,0.2v19h-3.5V11h-9v8.3H22v-19h3.5v8h9v-8 M65.6,9.8c0,1.4-0.3,2.7-0.7,4s-1.3,2-2,3c-1,0.8-2,1.5-3.2,2s-2.5,0.7-4,0.7
	c-1.4,0-2.7-0.2-4-0.7s-2-1.2-3-2c-0.8-1-1.4-2-2-3c-0.4-1.3-0.6-2.6-0.6-4s0.2-2.7,0.7-4c0.4-1,1-2.2,2-3c0.7-1,1.7-1.6,3-2
	c1-0.6,2.4-0.8,4-0.8c0.8,0,1.8,0,2.6,0.3c1,0.3,1.7,0.6,2.4,1l2,1.5c0.5,0.6,1,1.2,1.3,2l1,2.3c0.2,1,0.3,1.8,0.3,2.8 M61.7,9.9
	c0-1-0.2-2-0.5-3c-0.3-0.7-0.7-1.4-1.2-2s-1.2-1-2-1.3C57.7,3.2,57,3,56,3s-2,0.2-2.6,0.5c-0.8,0.3-1.4,0.7-2,1.3
	c-0.5,0.6-1,1.3-1.2,2c-0.2,1-0.4,2-0.4,3s0.2,2,0.4,2.8c0.3,0.8,0.7,1.5,1.3,2c0.5,0.7,1,1,2,1.4c0.6,0.3,1.4,0.5,2.4,0.5
	c0.8,0,1.6-0.2,2.4-0.5c0.7-0.3,1.4-0.7,2-1.3c0.4-0.6,0.8-1.3,1-2c0.4-1,0.5-2,0.5-3 M86.4,3h-5.7v16.3H77V3h-5.7V0.3h15 M111,9.8
	c0,1.4-0.2,2.7-0.7,4s-1,2-2,3c-0.8,0.8-1.8,1.5-3,2s-2.5,0.7-4,0.7c-1.4,0-2.7-0.2-4-0.7s-2-1.2-3-2c-0.8-1-1.5-2-2-3
	c-0.4-1.3-0.6-2.6-0.6-4s0.2-2.7,0.7-4c0.4-1,1-2.2,2-3c0.8-1,1.8-1.6,3-2c1.2-0.6,2.5-0.8,4-0.8c1,0,1.8,0,2.7,0.3l2.5,1l2,1.5
	c0.4,0.6,1,1.2,1.3,2l1,2.3L111,9.8 M107.5,9.9c0-1,0-2-0.4-3c-0.3-0.7-0.7-1.4-1.2-2s-1.2-1-2-1.3c-0.7-0.3-1.5-0.5-2.4-0.5
	c-1,0-1.8,0.2-2.6,0.5c-0.7,0.3-1.3,0.7-2,1.3c-0.4,0.6-0.8,1.3-1,2c-0.4,1-0.5,2-0.5,3s0,2,0.4,2.8c0.3,0.8,0.7,1.5,1.2,2
	c0.5,0.7,1,1,1.8,1.4c0.8,0.3,1.6,0.5,2.6,0.5s1.7-0.2,2.5-0.5c0.6-0.3,1.3-0.7,1.8-1.3s1-1.3,1.2-2c0.3-1,0.4-2,0.4-3 M224,0.2
	l-6,19h-3l-4.3-13l-0.3-1c0,0,0,0.3-0.2,0.5v0.6l-4.4,13h-3.2l-6-19h3.8l0.5,0.7l3,11.5c0.2,0.2,0.3,0.5,0.3,1l0.2,1
	c0-0.5,0.2-0.8,0.3-1c0-0.5,0-0.8,0.2-1L208.8,1c0-0.2,0.2-0.4,0.4-0.5c0.2-0.2,0.5-0.3,0.8-0.3h1c0.3,0,0.6,0,0.8,0.2
	c0,0.2,0.3,0.4,0.4,0.6l3.7,11.5c0,0.5,0.3,1,0.4,1.8l0.4-1.8L220,1c0-0.2,0.3-0.4,0.5-0.6l0.7-0.2C221.2,0.2,224,0.2,224,0.2z
	 M234.5,3v5.3h6.7V11h-6.7v5.5h8.4v2.8h-12v-19h12V3 M256.3,3v5.3h6.7V11h-6.7v5.5h8.5v2.8h-12v-19h12V3 M277,8.2h1.7l0.6-0.6
	l5.2-6.6l0.7-0.6l1-0.2h3l-6.4,8c-0.4,0.4-0.8,0.8-1.2,1c0.3,0,0.5,0.2,0.8,0.4l0.6,0.8l6.7,9h-3c-0.6,0-1,0-1-0.2
	c-0.3-0.2-0.5-0.3-0.6-0.6l-5.3-7c-0.2-0.3-0.4-0.4-0.6-0.5h-2v8.3h-3.5V0.3h3.5v8L277,8.2z M136.6,9.8c0,0.6,0,1-0.3,1.7
	c-0.2,0.5-0.5,1-1,1.3c-0.2,0.4-0.7,0.7-1.2,1s-1,0.2-1.6,0.2s-1.2,0-1.7-0.3s-1-0.5-1.4-1c-0.3-0.3-0.6-0.7-0.8-1.2
	c-0.2-0.6-0.3-1-0.3-1.7s0-1.2,0.3-1.7l0.8-1.3c0.4-0.4,0.8-0.7,1.4-1l1.7-0.2c0.4,0,0.8,0,1.2,0.2c0.4,0,0.7,0.2,1,0.4l0.8,0.7
	l0.7,1c0.3,0.2,0.4,0.5,0.5,1L136.6,9.8 M135.2,9.9c0-0.4,0-0.8-0.2-1.2c0-0.3-0.3-0.6-0.5-1c-0.2,0-0.5-0.3-0.8-0.5l-1-0.2
	c-0.5,0-1,0-1.2,0.2l-0.8,0.6c-0.3,0.3-0.4,0.6-0.6,1c-0.2,0.3-0.3,0.7-0.3,1.2c0,0.4,0,0.8,0.2,1.2l0.5,1l0.8,0.5l1,0.2
	c0.5,0,1,0,1.2-0.2c0.3,0,0.6-0.3,0.8-0.6l0.5-1l0.2-1.2 M141.5,6.8v2.5h3v1.2h-3V14H140V5.5h5.2v1.2 M159.3,7h-2.5v7h-1.6V7h-2.5
	V5.5h6.6 M170,5.6V14h-1.7v-3.7h-4V14H163V5.5h1.6v3.6h4V5.6 M175.7,6.8V9h3v1.3h-3v2.4h3.7V14H174V5.5h5.4v1.2 M184.2,18.5h-60.8
	c0-0.8,0.6-1.4,1.4-1.4h58c0.7,0,1.4,0.7,1.4,1.5L184.2,18.5z M182.7,2.5h-58c-0.7,0-1.3-0.7-1.3-1.5h60.8
	C184.2,1.8,183.5,2.5,182.7,2.5"/>
</svg>
