<svg id="Layer_1" data-name="Layer 1" xmlns="http://www.w3.org/2000/svg" viewBox="0 0 100 100"><defs><style>.cls-1{fill:#0067b0;}</style></defs><path class="cls-1" d="M88.22,54.88H84.76a1.55,1.55,0,1,0,0,3.09h3.46a1.55,1.55,0,0,0,0-3.09Z"/><path class="cls-1" d="M88.22,59.83H84.76a1.55,1.55,0,1,0,0,3.09h3.46a1.55,1.55,0,0,0,0-3.09Z"/><path class="cls-1" d="M95.78,66.68H94.36a4,4,0,0,0,.46-1.87V26.89a4.22,4.22,0,0,0-4.21-4.21H12.77a4.22,4.22,0,0,0-4.21,4.21v.64c-4.2.18-7.21.42-7.5.45v0A1.53,1.53,0,0,0,.9,31l2.53.49a18.41,18.41,0,0,1,5.13,2.35V64.81A4,4,0,0,0,9,66.68H7.59A4.22,4.22,0,0,0,3.38,70.9V91.27a4.22,4.22,0,0,0,4.21,4.21H95.78A4.22,4.22,0,0,0,100,91.27V70.9A4.22,4.22,0,0,0,95.78,66.68ZM11.64,26.89a1.14,1.14,0,0,1,1.13-1.13H90.61a1.14,1.14,0,0,1,1.13,1.13V64.81a1.14,1.14,0,0,1-1.13,1.13H12.77a1.14,1.14,0,0,1-1.13-1.13V36.45a22.46,22.46,0,0,1,5,8.2c0,.13.16.19.23.3a1.52,1.52,0,0,0-.32.9,1.54,1.54,0,0,0,1.54,1.54h24.1a1.54,1.54,0,0,0,0-3.08H42a1.3,1.3,0,0,0,0-.21c0-3.79-1.59-10.33-6.57-13.84a.71.71,0,0,0-.14-.1A13.2,13.2,0,0,0,29.5,28a123.35,123.35,0,0,0-17.86-.56ZM19.57,43.6a25,25,0,0,0-6.68-10.25l14.55,2.82,1.78.3.05-1.81a1.72,1.72,0,0,1,.63-1.18c.74-.61,2.18-.78,4-.51,4.81,3.6,5,10.79,5,11.17,0,.06,0,.11,0,.17H19.63A1.55,1.55,0,0,0,19.57,43.6Zm8.28-12.43a4.86,4.86,0,0,0-1.26,1.7L12.88,30.21l3.74.22A105,105,0,0,1,28.2,31C28.09,31,28,31.08,27.85,31.17Zm69.07,60.1a1.14,1.14,0,0,1-1.14,1.13H7.59a1.14,1.14,0,0,1-1.13-1.13V70.9a1.14,1.14,0,0,1,1.13-1.13H95.78a1.14,1.14,0,0,1,1.14,1.13Z"/><path class="cls-1" d="M73.79,20.77H90.61a4.22,4.22,0,0,0,4.21-4.22V10.37a4.22,4.22,0,0,0-4.21-4.21H73.79a4.22,4.22,0,0,0-4.22,4.21v6.18A4.22,4.22,0,0,0,73.79,20.77Zm-1.14-10.4a1.14,1.14,0,0,1,1.14-1.13H90.61a1.14,1.14,0,0,1,1.13,1.13v6.18a1.13,1.13,0,0,1-1.13,1.13H73.79a1.13,1.13,0,0,1-1.14-1.13Z"/><path class="cls-1" d="M57.92,47.39H86.7a4.22,4.22,0,0,0,4.21-4.21v-11A4.22,4.22,0,0,0,86.7,28H57.92a4.22,4.22,0,0,0-4.21,4.22v11A4.22,4.22,0,0,0,57.92,47.39Zm-1.13-15.2a1.13,1.13,0,0,1,1.13-1.13H86.7a1.13,1.13,0,0,1,1.13,1.13v11a1.14,1.14,0,0,1-1.13,1.13H57.92a1.14,1.14,0,0,1-1.13-1.13Z"/><path class="cls-1" d="M61.05,59.83H57.58a1.55,1.55,0,0,0,0,3.09h3.47a1.55,1.55,0,0,0,0-3.09Z"/><path class="cls-1" d="M61.05,54.88H57.58a1.55,1.55,0,0,0,0,3.09h3.47a1.55,1.55,0,0,0,0-3.09Z"/><path class="cls-1" d="M61.05,49.79H57.58a1.55,1.55,0,0,0,0,3.09h3.47a1.55,1.55,0,0,0,0-3.09Z"/><path class="cls-1" d="M88.22,49.79H84.76a1.55,1.55,0,1,0,0,3.09h3.46a1.55,1.55,0,0,0,0-3.09Z"/><path class="cls-1" d="M74.64,49.79H71.17a1.55,1.55,0,0,0,0,3.09h3.47a1.55,1.55,0,0,0,0-3.09Z"/><path class="cls-1" d="M74.64,54.88H71.17a1.55,1.55,0,0,0,0,3.09h3.47a1.55,1.55,0,0,0,0-3.09Z"/><path class="cls-1" d="M74.64,59.83H71.17a1.55,1.55,0,0,0,0,3.09h3.47a1.55,1.55,0,0,0,0-3.09Z"/></svg>