<svg id="Layer_1" data-name="Layer 1" xmlns="http://www.w3.org/2000/svg" viewBox="0 0 100 100"><defs><style>.cls-1{fill:#0067b0;}</style></defs><path class="cls-1" d="M17.08,56.23c0-10.94,7.27-21,19-26.37a1.11,1.11,0,0,0,.56-1.47,1.13,1.13,0,0,0-1.48-.56c-12.52,5.69-20.3,16.58-20.3,28.4,0,9.08,4.64,17.79,12.72,23.91a1.07,1.07,0,0,0,.67.23,1.12,1.12,0,0,0,.68-2C21.39,72.67,17.08,64.61,17.08,56.23Z"/><path class="cls-1" d="M96.05,50.66h0l-2.88-.38A1.37,1.37,0,0,1,92,49.23C89.72,40.55,83.09,33,73.84,28.39a1.1,1.1,0,0,0-1.49.5,1.12,1.12,0,0,0,.5,1.5c8.67,4.27,14.87,11.35,17,19.42a3.61,3.61,0,0,0,3,2.69l3,.39a1.57,1.57,0,0,1,1.58,1.57v8a1.58,1.58,0,0,1-1.58,1.58H91.94a3.62,3.62,0,0,0-3.3,2.21A30.63,30.63,0,0,1,78.45,78.7a5.12,5.12,0,0,0-2.1,3.47L75.13,91.5a1.58,1.58,0,0,1-1.58,1.58h-8A1.58,1.58,0,0,1,64,91.5v-4c.32-.07.64-.12.95-.2a1.12,1.12,0,1,0-.52-2.17,44.4,44.4,0,0,1-7.83,1.15l-4.57,0a44.72,44.72,0,0,1-7.87-1,1.11,1.11,0,1,0-.49,2.17c.81.19,1.64.35,2.47.49V91.5a1.57,1.57,0,0,1-1.57,1.58h-8a1.57,1.57,0,0,1-1.57-1.58l-2-8.63a1.11,1.11,0,1,0-2.17.5l1.93,8.27a3.81,3.81,0,0,0,3.8,3.67h8a3.81,3.81,0,0,0,3.8-3.81V88.27A46.37,46.37,0,0,0,61.73,88V91.5a3.82,3.82,0,0,0,3.81,3.81h8a3.77,3.77,0,0,0,3.8-3.66l1.22-9.19a2.91,2.91,0,0,1,1.2-2A32.78,32.78,0,0,0,90.69,67.15a1.37,1.37,0,0,1,1.25-.87h3.94a3.82,3.82,0,0,0,3.81-3.81v-8A3.77,3.77,0,0,0,96.05,50.66Z"/><path class="cls-1" d="M11.93,52c-.63-.15-1.24-.37-1.85-.57a3.73,3.73,0,0,0-2.4-4.11A2.38,2.38,0,0,0,5,48.23a2.7,2.7,0,0,0,.08,2.82,4.9,4.9,0,0,0,2.19,1.67A5.44,5.44,0,0,1,5.91,54c-1.24.83-3,1.94-4.57,1.32A1.12,1.12,0,0,0,0,56.07a1.14,1.14,0,0,0,.78,1.37c2,.8,4.17-.26,5.85-1.27a8,8,0,0,0,2.75-2.61,17.24,17.24,0,0,0,2,.58C12.73,54.47,13.33,52.32,11.93,52ZM6.85,49.4c-.06.08.05,0,.09,0a1.34,1.34,0,0,1,.93,1.18A2.45,2.45,0,0,1,7,50C6.9,49.81,6.74,49.54,6.85,49.4Z"/><path class="cls-1" d="M82.62,31.69a5.56,5.56,0,0,1,4-1.35l-1.28,3.82a1.13,1.13,0,0,0,.71,1.42,1.06,1.06,0,0,0,.35.05,1.11,1.11,0,0,0,1.06-.76l1.43-4.3a1.81,1.81,0,0,0-.14-1.47,1.77,1.77,0,0,0-1.14-.86,7.61,7.61,0,0,0-6.55,1.85,1.1,1.1,0,0,0,0,1.57A1.11,1.11,0,0,0,82.62,31.69Z"/><path class="cls-1" d="M72,41.17a5.37,5.37,0,0,1,4-1.36l-1.27,3.82a1.12,1.12,0,0,0,2.12.71L78.29,40a1.83,1.83,0,0,0-.15-1.48A1.76,1.76,0,0,0,77,37.71a7.63,7.63,0,0,0-6.55,1.84A1.12,1.12,0,0,0,72,41.17Z"/><path class="cls-1" d="M42.39,31.76a1.12,1.12,0,0,0,.36,2.17.91.91,0,0,0,.36-.06,36.08,36.08,0,0,1,22.69-.06,1.11,1.11,0,0,0,1.42-.7,1.12,1.12,0,0,0-.71-1.41c-.49-.17-1-.29-1.51-.44a14.94,14.94,0,0,0,5-11.17,15.09,15.09,0,1,0-25.37,11C43.86,31.31,43.12,31.51,42.39,31.76ZM42,20.09A12.85,12.85,0,1,1,62.61,30.36a1,1,0,0,0-.22.25,38.89,38.89,0,0,0-15-.13A12.87,12.87,0,0,1,42,20.09Z"/><path class="cls-1" d="M55.29,28.33A.31.31,0,0,0,55.6,28V26.9a.21.21,0,0,1,.19-.21c2.35-.24,4.2-1.57,4.2-3.81,0-2.64-2.66-3.19-4.61-3.64-2.1-.44-3.19-.79-3.19-1.78s1-1.43,2.46-1.43a4.92,4.92,0,0,1,3.41,1.45.31.31,0,0,0,.43,0l1.13-1.17a.29.29,0,0,0,0-.43A7,7,0,0,0,55.82,14a.2.2,0,0,1-.18-.2V12.7a.31.31,0,0,0-.31-.31h-.78a.31.31,0,0,0-.31.31v1.09a.2.2,0,0,1-.19.2c-2.33.23-4.22,1.69-4.22,3.73,0,2.48,2.5,3.11,4.43,3.6s3.21.65,3.21,1.81c0,.89-.93,1.44-2.34,1.46A5.17,5.17,0,0,1,51.31,23a.31.31,0,0,0-.44,0l-1.13,1.16a.31.31,0,0,0,0,.44A7.16,7.16,0,0,0,54,26.69a.21.21,0,0,1,.19.2V28a.3.3,0,0,0,.31.3Z"/></svg>