<svg id="Layer_1" data-name="Layer 1" xmlns="http://www.w3.org/2000/svg" viewBox="0 0 100 100"><defs><style>.cls-1{fill:#0067b0;}</style></defs><path class="cls-1" d="M94.12,44.06l-.5,0h0C89.1,43.52,81.94,49,75,54.28c-.92.69-1.83,1.43-2.75,2.12A10.39,10.39,0,0,0,72.33,55c0-5-6.47-6.24-6.75-6.3H50.47a21.79,21.79,0,0,1-6.81-1,32.6,32.6,0,0,0-9.56-1.32h-.23A20.86,20.86,0,0,0,17,53.54L1,60.41a1.29,1.29,0,0,0-.74,1,21.88,21.88,0,0,0,1.89,9.8c2.12,4.86,7,11.5,18.31,15.68a1.32,1.32,0,0,0,1-.06c.06,0,5.1-2.8,8.13-4.41.51-.28,1-.51,1.37-.74,1.89-1.09,2.64-1.49,6.87-.74A138.68,138.68,0,0,0,58,82.45c5.43,0,7.15-1.37,12.18-5.49.74-.57,1.55-1.26,2.46-2,1.37-1.09,3.09-2.46,4.92-3.84,7.61-5.89,18.09-13.9,22.26-19.57a1.13,1.13,0,0,0,.23-.63A6.4,6.4,0,0,0,94.12,44.06Zm-18,25.15h0c-1.83,1.43-3.54,2.75-5,3.89-.92.75-1.72,1.38-2.46,2C63.63,79.18,62.6,80,58,80a139.47,139.47,0,0,1-19.69-1.43c-4.92-.86-6.12-.29-8.52,1-.4.23-.8.46-1.26.68-2.52,1.33-6.36,3.45-7.68,4.12C3.7,77.81,2.67,65.56,2.73,62.47l15.62-6.7a1.28,1.28,0,0,0,.52-.4,14.09,14.09,0,0,1,3.6-3.2A21,21,0,0,1,34.15,49a29.66,29.66,0,0,1,8.93,1.2,22.9,22.9,0,0,0,7.44,1.09H65.28c.63.11,4.64,1.09,4.64,3.83a5.24,5.24,0,0,1-1.6,4.18c-.29.17-.52.34-.75.46a5.45,5.45,0,0,1-2.29.46H44.86a1.2,1.2,0,1,0,0,2.4H65.29a6.9,6.9,0,0,0,4.58-1.49c1.95-1.32,4.24-3.09,6.7-4.92,5.89-4.52,13.27-10.19,16.82-9.8,3.89.46,4.29,3,4.29,3.9C93.56,55.76,83.49,63.55,76.11,69.21Z"/><path class="cls-1" d="M26.91,42.61h49.3a3.93,3.93,0,0,0,3.93-3.93V12.94A3.94,3.94,0,0,0,76.21,9H26.91A4,4,0,0,0,23,12.94V38.68A3.94,3.94,0,0,0,26.91,42.61ZM25.62,12.94a1.29,1.29,0,0,1,1.29-1.29h49.3a1.29,1.29,0,0,1,1.29,1.29V38.68A1.29,1.29,0,0,1,76.21,40H26.91a1.29,1.29,0,0,1-1.29-1.29Z"/><path class="cls-1" d="M41.25,30h6.24v6.24a1.64,1.64,0,0,0,1.64,1.64H54a1.64,1.64,0,0,0,1.64-1.64V30h6.24a1.64,1.64,0,0,0,1.64-1.64v-5a1.65,1.65,0,0,0-1.64-1.64H55.63V15.41A1.64,1.64,0,0,0,54,13.76H49.13a1.64,1.64,0,0,0-1.64,1.65v6.23H41.25a1.65,1.65,0,0,0-1.64,1.64v5A1.64,1.64,0,0,0,41.25,30Zm1-5.68h6.23a1.64,1.64,0,0,0,1.64-1.65V16.41H53v6.23a1.64,1.64,0,0,0,1.64,1.65h6.23v3H54.63A1.63,1.63,0,0,0,53,29V35.2H50.13V29a1.63,1.63,0,0,0-1.64-1.64H42.26Z"/></svg>