<?xml version="1.0" encoding="utf-8"?>
<!-- Generator: Adobe Illustrator 24.0.3, SVG Export Plug-In . SVG Version: 6.00 Build 0)  -->
<svg version="1.1" id="Layer_1" xmlns="http://www.w3.org/2000/svg" xmlns:xlink="http://www.w3.org/1999/xlink" x="0px" y="0px"
	 viewBox="0 0 252 252" style="enable-background:new 0 0 252 252;" xml:space="preserve">
<style type="text/css">
	.st0{fill:#0067B0;}
</style>
<path class="st0" d="M128.9,186.9c-28.6,0-34.1-26.6-34.3-27.8c-0.2-1.2-1.3-1.9-2.5-1.7c-1.2,0.2-1.9,1.3-1.7,2.5
	c0.1,0.3,6.4,31.3,38.5,31.3c1.2,0,2.1-1,2.1-2.1S130,186.9,128.9,186.9L128.9,186.9z"/>
<path class="st0" d="M176.3,118.3c-12.1-21.6-37.6-67.7-42-76.5c0,0,0,0,0,0c-1.6-3-4.7-4.9-8.2-4.9h0c-3.4,0-6.6,1.9-8.2,4.9
	l-0.7,1.3c-2.3,4.6-14.2,25.9-24.7,44.8c-7.4,13.3-13.8,24.7-15.8,28.6c-0.4,0.7-0.8,1.5-1.2,2.3c-5.1,9.4-12.1,22.2-10,42.3
	c2.3,21.8,23,54,60.2,54c36,0,56.7-28,59.9-48C188.6,148.3,186.4,136.4,176.3,118.3L176.3,118.3z M181.4,166.5
	c-2.3,14.5-19,44.4-55.7,44.4c-34.6,0-53.8-30-56-50.2c-2-18.7,4.7-30.9,9.5-39.8c0.4-0.8,0.8-1.6,1.2-2.3c2-3.8,8.7-15.8,15.8-28.5
	c10.5-18.9,22.4-40.3,24.7-44.9l0.7-1.2c0.8-1.6,2.5-2.7,4.4-2.6h0c1.9,0,3.5,1,4.4,2.6c4.8,9.6,32.9,60.3,42.1,76.6
	C182.2,137.7,184.3,148.5,181.4,166.5L181.4,166.5z"/>
</svg>
