<?xml version="1.0" encoding="utf-8"?>
<!-- Generator: Adobe Illustrator 24.0.3, SVG Export Plug-In . SVG Version: 6.00 Build 0)  -->
<svg version="1.1" id="Layer_1" xmlns="http://www.w3.org/2000/svg" xmlns:xlink="http://www.w3.org/1999/xlink" x="0px" y="0px"
	 viewBox="0 0 252 252" style="enable-background:new 0 0 252 252;" xml:space="preserve">
<style type="text/css">
	.st0{fill:#0067B0;}
</style>
<path class="st0" d="M200.9,159.5l-3.1-3.1c-0.2-4.1-1.9-21.1-15.9-37.7c-14.2-16.8-36-18.8-41.3-19l-7.1-10.1
	c-0.4-0.6-1.1-0.9-1.8-0.9h-23.4c-0.7,0-1.3,0.3-1.7,0.9L99,100H78.6c-1.1-4.8-5.7-7.1-8.3-7.7c-0.2,0-0.3-0.1-0.5-0.1h-9.3
	c-7.5,0-9.9,6.2-10.2,9.5c0,0.1,0,0.1,0,0.2v32.9c0,7.3,6.3,9.5,9.6,9.7c0,0,0.1,0,0.1,0H69c5.2,0,7.9-4.7,9-8.4h21.2
	c1.5,4.3,6.9,15.6,21,15.6c6.7,0,12.6-3.1,17-8.9c2.1-2.8,3.4-5.5,4-7.2c7.6,0.4,13.3,4,17,10.6c2.3,4.1,3.2,8.4,3.5,10.2l-2.8,2.8
	c-0.8,0.8-0.8,2.2,0,3c0.4,0.4,0.9,0.6,1.5,0.6h39c0.9,0,1.6-0.5,2-1.3C201.7,161,201.6,160.1,200.9,159.5L200.9,159.5z
	 M165.6,158.9c0.4-0.4,0.5-1,0.5-1.6c0-0.3-2.4-25.8-26.4-25.8c-0.9,0-1.8,0.6-2.1,1.5c0,0-1.2,3.8-4,7.5c-3.6,4.7-8.2,7.1-13.6,7.1
	c-13.9,0-17.2-13.4-17.3-14c-0.2-1-1.1-1.7-2.1-1.7H76.3c-1.1,0-2,0.8-2.1,1.8c0,0.1-1.1,6.6-5.2,6.6h-8.7c-0.8-0.1-5.5-0.6-5.5-5.5
	V102c0.1-0.8,0.7-5.4,5.9-5.4h9c1,0.3,5,1.7,5,5.6c0,1.2,1,2.1,2.1,2.1h23.4c0.7,0,1.3-0.3,1.7-0.9l7.7-10.6h21.2l7.1,10.1
	c0.4,0.6,1.1,0.9,1.8,0.9c0.2,0,24.5,0.2,39.1,17.5c14.7,17.4,14.9,35.7,14.9,35.9c0,0.6,0.2,1.1,0.6,1.5l0.1,0.1L165.6,158.9
	L165.6,158.9z M181.3,176.6c-0.4-0.5-1-0.8-1.6-0.8c-0.6,0-1.2,0.3-1.7,0.7c-0.4,0.4-9.7,11.1-12.2,22.7c-0.9,4.4-0.3,8,2,10.8
	c3.2,4,8.8,5.1,11.5,5.1c2.6,0,8.4-1.1,11.6-5.1c2.2-2.7,2.8-6.2,1.9-10.3C190.4,188.4,181.7,177.1,181.3,176.6L181.3,176.6z
	 M187.6,207.3c-2.3,2.9-6.9,3.5-8.3,3.5c-1.5,0-5.9-0.6-8.2-3.5c-1.4-1.8-1.8-4.2-1.2-7.2c1.7-7.7,6.8-15.1,9.5-18.7
	c2.6,3.7,7.6,11.6,9.2,19.2C189.4,203.5,189,205.7,187.6,207.3L187.6,207.3z M86.1,52.5l5.9,10.9c0.4,0.7,1.1,1.1,1.9,1.1h17.4v14.8
	c0,1.2,1,2.1,2.1,2.1c1.2,0,2.1-1,2.1-2.1V64.5h11.6v14.8c0,1.2,1,2.1,2.1,2.1c1.2,0,2.1-1,2.1-2.1V64.5H148c0.8,0,1.5-0.4,1.9-1.1
	l5.9-10.9c0-0.1,0.1-0.1,0.1-0.2c0.1-0.3,1.1-2.8-0.4-5c-1.1-1.7-3.1-2.5-6-2.5h-18.2c-0.8-3.5-3.3-7.9-9.7-7.9
	c-6.3,0-9.4,4.5-10.5,7.9H93.3c-1.1-0.1-5.2-0.3-7.1,2.3c-0.7,1-1.4,2.7-0.3,5.2C86,52.4,86,52.5,86.1,52.5z M89.7,49.6
	c0.2-0.4,1.9-0.7,3.3-0.6c0.1,0,0.1,0,0.2,0h19.5c1.1,0,2-0.8,2.1-1.8c0.1-0.6,1.1-6.1,6.7-6.1c5.2,0,5.6,4.9,5.6,5.8
	c0,1.2,1,2.1,2.1,2.1h20.1c1.6,0,2.3,0.4,2.4,0.6c0.1,0.2,0.1,0.7,0,0.9l-5.2,9.6H95.1l-5.2-9.6C89.6,50,89.7,49.7,89.7,49.6z"/>
</svg>
