<svg xmlns="http://www.w3.org/2000/svg" width="366.935" height="32.406" viewBox="0 0 366.935 32.406">
  <g id="we-rise-as-one-white" transform="translate(-3.267 0.392)">
    <path id="Path_540" data-name="Path 540" d="M556.481,1340.984h14.967c5.427,0,8.884,1.357,11.028,3.5a9.618,9.618,0,0,1,2.8,7.264v.088a9.91,9.91,0,0,1-6.039,9.367l7.133,10.414H574.686l-5.776-8.75h-2.188v8.75H556.481Zm14.661,14.573c2.453,0,3.939-1.095,3.939-2.976v-.087c0-1.97-1.533-2.933-3.894-2.933h-4.464v6Z" transform="translate(-463.12 -1340.562)" fill="#0d60b5"/>
    <path id="Path_541" data-name="Path 541" d="M478.356,1341h10.722l4.334,14.7,4.945-14.792H507.2l4.945,14.792,4.334-14.7h10.547L517,1371.848h-8.931l-5.383-15.229-5.383,15.229h-8.927Z" transform="translate(-475.089 -1340.574)" fill="#0d60b5"/>
    <path id="Path_542" data-name="Path 542" d="M522.077,1340.984h26.128v8.4H532.142v3.108h14.965v7.4H532.142v3.326h16.281v8.4H522.077Z" transform="translate(-468.391 -1340.562)" fill="#0d60b5"/>
    <path id="Path_543" data-name="Path 543" d="M584.168,1340.982h10.24v30.633h-10.24v-30.634Z" transform="translate(-458.879 -1340.56)" fill="#0d60b5"/>
    <path id="Path_544" data-name="Path 544" d="M593.959,1367.1l5.471-6.52a17.558,17.558,0,0,0,10.722,3.589c1.837,0,2.626-.481,2.626-1.312v-.088c0-.875-.963-1.357-4.246-2.013-6.869-1.4-12.909-3.37-12.909-9.846v-.088c0-5.821,4.551-10.329,13-10.329,5.909,0,10.284,1.4,13.829,4.2l-4.988,6.915a16.07,16.07,0,0,0-9.191-3.019c-1.531,0-2.231.526-2.231,1.268v.088c0,.83.831,1.356,4.069,1.968,7.835,1.444,13.084,3.721,13.084,9.891v.087c0,6.433-5.294,10.372-13.522,10.372C603.457,1372.265,597.854,1370.512,593.959,1367.1Z" transform="translate(-457.379 -1340.638)" fill="#0d60b5"/>
    <path id="Path_545" data-name="Path 545" d="M621.361,1340.984H646a.881.881,0,0,1,.772,1.305l-3.568,6.492a1.163,1.163,0,0,1-1.022.6H631.425v3.108h13.417a.859.859,0,0,1,.73,1.315l-3.448,5.524a1.186,1.186,0,0,1-1.005.557h-9.691v3.326h14.82a.863.863,0,0,1,.756,1.28l-3.611,6.572a1.06,1.06,0,0,1-.929.55h-21.1Z" transform="translate(-453.181 -1340.562)" fill="#0d60b5"/>
    <g id="Group_195" data-name="Group 195" transform="translate(207.129 -0.392)">
      <path id="Path_546" data-name="Path 546" d="M490.379,1373.454h5.1l13.787,31.555H503.45l-3.178-7.564H485.456l-3.223,7.564h-5.639Zm7.878,19.112-5.415-12.532-5.372,12.532Z" transform="translate(-476.594 -1373.14)" fill="#0d60b5"/>
      <path id="Path_547" data-name="Path 547" d="M505.008,1400.469l3.312-3.94c3,2.6,6.043,4.073,9.9,4.073,3.4,0,5.549-1.612,5.549-3.938v-.09c0-2.238-1.252-3.447-7.074-4.789-6.669-1.611-10.427-3.581-10.427-9.355v-.09c0-5.372,4.477-9.086,10.7-9.086a17.361,17.361,0,0,1,11.367,3.94l-2.953,4.162a14.235,14.235,0,0,0-8.5-3.222c-3.223,0-5.1,1.655-5.1,3.715v.09c0,2.417,1.431,3.491,7.475,4.923,6.624,1.611,10.026,3.985,10.026,9.176v.089c0,5.864-4.61,9.355-11.189,9.355a19.3,19.3,0,0,1-13.071-5.011Z" transform="translate(-472.241 -1373.165)" fill="#0d60b5"/>
      <path id="Path_548" data-name="Path 548" d="M537.459,1389.474v-.089a16.384,16.384,0,0,1,32.764-.09v.09a16.384,16.384,0,0,1-32.764.089Zm26.99,0v-.089c0-6.088-4.432-11.1-10.653-11.1s-10.563,4.922-10.563,11.011v.09c0,6.086,4.43,11.1,10.652,11.1s10.565-4.924,10.565-11.011Z" transform="translate(-467.27 -1373.182)" fill="#0d60b5"/>
      <path id="Path_549" data-name="Path 549" d="M569.327,1373.648h5.1l16.786,21.663v-21.663h5.417v31.331h-4.61l-17.277-22.29v22.29h-5.415Z" transform="translate(-462.387 -1373.111)" fill="#0d60b5"/>
      <path id="Path_550" data-name="Path 550" d="M597.663,1373.648h23.231v4.924H603.168v8.145H618.88v4.969H603.168v8.37h17.95v4.923H597.663Z" transform="translate(-458.046 -1373.111)" fill="#0d60b5"/>
    </g>
  </g>
</svg>
